<?xml version="1.0" encoding="UTF-8" standalone="no"?>
<svg
   xmlns:dc="http://purl.org/dc/elements/1.1/"
   xmlns:cc="http://creativecommons.org/ns#"
   xmlns:rdf="http://www.w3.org/1999/02/22-rdf-syntax-ns#"
   xmlns:svg="http://www.w3.org/2000/svg"
   xmlns="http://www.w3.org/2000/svg"
   xmlns:sodipodi="http://sodipodi.sourceforge.net/DTD/sodipodi-0.dtd"
   xmlns:inkscape="http://www.inkscape.org/namespaces/inkscape"
   inkscape:version="1.0rc1 (09960d6, 2020-04-09)"
   sodipodi:docname="engarde.svg"
   width="615mm"
   height="385mm"
   viewBox="0 0 615 385"
   version="1.1"
   id="svg5070">
  <sodipodi:namedview
     inkscape:current-layer="layer1"
     inkscape:window-maximized="0"
     inkscape:window-y="23"
     inkscape:window-x="640"
     inkscape:cy="704.79155"
     inkscape:cx="1002.8322"
     inkscape:zoom="0.35137795"
     inkscape:snap-global="true"
     showgrid="false"
     id="namedview15"
     inkscape:window-height="1009"
     inkscape:window-width="1280"
     inkscape:pageshadow="2"
     inkscape:pageopacity="0"
     guidetolerance="10"
     gridtolerance="10"
     objecttolerance="10"
     borderopacity="1"
     bordercolor="#666666"
     pagecolor="#ffffff" />
  <defs
     id="defs5064" />
  <metadata
     id="metadata5067">
    <rdf:RDF>
      <cc:Work
         rdf:about="">
        <dc:format>image/svg+xml</dc:format>
        <dc:type
           rdf:resource="http://purl.org/dc/dcmitype/StillImage" />
        <dc:title />
      </cc:Work>
    </rdf:RDF>
  </metadata>
  <g
     id="layer1"
     transform="translate(307.79082,81.274543)">
    <path
       style="fill:#ff0000;stroke-width:0.35277778"
       d="m 252.31176,299.21316 c -5.16611,-2.60735 -6.43618,-3.64374 -8.50508,-6.94023 -1.04602,-1.6667 -2.57323,-4.05617 -3.39376,-5.30998 -1.87025,-2.85775 -2.09126,-3.68452 -1.25949,-4.7117 0.55083,-0.68026 0.7824,-0.74175 1.6092,-0.42742 0.53121,0.20196 0.9658,0.51488 0.9658,0.69532 0,0.18048 0.51594,0.97208 1.14653,1.75913 1.28358,1.60207 3.41993,4.91673 4.29789,6.66841 0.72764,1.45183 2.73583,2.91949 6.47958,4.73562 2.73939,1.32888 3.08052,1.40928 5.29166,1.24686 3.66399,-0.26917 10.30387,-1.74279 11.30886,-2.50987 0.6852,-0.523 0.34869,-3.25819 -0.65631,-5.33421 -0.89443,-1.84768 -4.65261,-6.04277 -6.84265,-7.63821 -0.75675,-0.55125 -1.79656,-1.00227 -2.3107,-1.00227 -0.51417,0 -1.08913,-0.15427 -1.27765,-0.3428 -0.18856,-0.18856 -1.39471,-0.49177 -2.68034,-0.67384 -3.04066,-0.43063 -3.92758,-0.89944 -3.62345,-1.91526 0.37737,-1.26048 1.10144,-1.77275 2.43484,-1.72262 1.16805,0.0439 1.24114,-0.0141 1.03784,-0.82412 -0.18497,-0.73695 -0.0939,-0.87136 0.59055,-0.87136 0.44509,0 1.18505,0.35302 1.64433,0.7845 1.27056,1.19366 1.50699,0.40446 1.4721,-4.91401 -0.0243,-3.72068 0.0822,-4.81965 0.52956,-5.45836 0.30808,-0.43981 0.56014,-1.34729 0.56014,-2.01662 0,-1.79641 0.97455,-6.86932 1.93865,-10.09134 0.46447,-1.55223 1.26672,-4.33035 1.78284,-6.17362 0.51611,-1.84326 1.46477,-4.54201 2.10816,-5.99722 0.6434,-1.45521 1.27635,-3.43958 1.40656,-4.40972 0.13021,-0.97014 0.45759,-2.55764 0.72754,-3.52778 1.02654,-3.68964 2.01499,-7.81019 2.17208,-9.05499 0.14461,-1.14594 0.0686,-1.3073 -0.66473,-1.41111 -1.59054,-0.22517 -1.24863,-1.65368 1.3028,-5.44323 3.0092,-4.46949 3.44735,-6.62428 2.41389,-11.87191 -0.14888,-0.75591 -0.0573,-0.97014 0.41479,-0.97014 0.54113,0 0.58022,-0.29203 0.36594,-2.73403 -0.13198,-1.50372 -0.48369,-3.61626 -0.78165,-4.69454 -0.29792,-1.07829 -0.48969,-2.50704 -0.42609,-3.175 0.10302,-1.08214 0.2285,-1.21449 1.15147,-1.21449 0.98714,0 1.06553,0.11608 1.66726,2.46945 0.74715,2.92195 1.25483,8.77391 1.2089,13.93472 -0.0365,4.10943 -0.48097,5.43397 -2.84074,8.46666 -0.67942,0.87313 -1.57452,2.21363 -1.98914,2.97891 l -0.75385,1.3914 0.75378,0.6104 c 0.70129,0.56785 0.74475,0.87254 0.62347,4.37188 -0.0986,2.843 -0.27235,3.92728 -0.71173,4.44043 -0.31973,0.37342 -0.58131,1.28297 -0.58131,2.02122 0,0.73826 -0.15565,2.20489 -0.34586,3.25917 -0.19026,1.05428 -0.41596,2.70706 -0.50165,3.67286 -0.11621,1.31002 -0.36435,1.91475 -0.97706,2.38112 -0.45169,0.34383 -1.01099,0.78208 -1.2429,0.97389 -0.23189,0.19181 -0.67942,1.26343 -0.99448,2.38137 -0.31511,1.11795 -0.87563,3.0645 -1.2457,4.32568 -1.95897,6.67671 -2.72316,10.40398 -2.8207,13.75834 -0.12926,4.44404 -0.14355,4.39769 2.13113,6.9077 2.27778,2.51344 2.5401,3.37912 1.53797,5.07556 -0.34594,0.58568 -0.49273,1.32217 -0.36492,1.83137 0.11758,0.46842 1.65379,2.17227 3.41383,3.78633 4.14264,3.79899 5.03231,5.4429 5.16449,9.54306 0.0859,2.66302 -0.004,3.16241 -0.84701,4.71149 -0.51869,0.95299 -1.64547,2.35102 -2.50395,3.10667 -1.60493,1.41273 -2.40312,1.59053 -6.23648,1.38916 -0.58889,-0.031 -2.25576,0.191 -3.70416,0.49315 -1.44837,0.30216 -3.82401,0.5485 -5.27922,0.54744 -2.35857,0 -2.9331,-0.14693 -5.29167,-1.33727 z m 5.06695,-12.09453 c -0.44372,-0.44369 -1.33921,-0.79255 -2.26296,-0.88152 -1.4399,-0.13868 -5.31869,-1.87656 -6.13541,-2.74891 -2.68538,-2.86837 -3.15503,-4.00354 -2.19794,-5.31245 0.61877,-0.84621 1.43047,-0.55097 3.4127,1.24132 1.86743,1.6885 3.98847,2.77054 5.46805,2.78948 0.58209,0.007 1.68649,0.36933 2.45421,0.80416 1.11516,0.63165 1.4533,1.06701 1.68141,2.16496 0.22369,1.07658 0.15783,1.51547 -0.30403,2.02579 -0.75939,0.83916 -1.21175,0.82145 -2.11603,-0.0828 z m -16.43461,-8.88065 c -1.47168,-1.21324 -1.78844,-3.32793 -1.14409,-7.63739 0.2921,-1.95347 0.67602,-3.93301 0.85319,-4.399 0.94079,-2.47452 1.15302,-10.50381 0.36018,-13.62643 -0.17243,-0.67909 -0.42301,-2.74284 -0.55689,-4.58611 -0.17776,-2.44781 -0.41956,-3.57822 -0.89683,-4.19271 -0.54494,-0.70159 -0.65345,-1.48179 -0.65345,-4.6975 0,-2.12089 0.14291,-4.12355 0.31757,-4.45034 0.17466,-0.32679 0.41497,-1.86417 0.53403,-3.41639 0.45801,-5.9714 1.10681,-9.56517 1.77289,-9.82078 0.22204,-0.0852 0.68989,0.0544 1.03971,0.31017 0.5269,0.3853 0.6308,0.95346 0.60554,3.31215 -0.0279,2.58667 0.26141,3.43945 0.84554,2.49429 0.3872,-0.62651 1.53493,-0.37902 3.96832,0.85572 6.45668,3.27621 8.84746,4.1199 13.1414,4.63755 2.09857,0.25299 3.47123,0.82041 4.24759,1.75585 0.43045,0.51866 0.38922,0.67611 -0.32936,1.25799 -0.60551,0.49031 -1.39058,0.66504 -2.98718,0.66483 -3.75176,-3.6e-4 -6.93244,-0.90455 -12.43658,-3.53488 -4.01362,-1.91803 -5.27706,-2.38078 -5.65157,-2.06994 -0.3828,0.31769 -0.47121,1.90238 -0.42827,7.67702 0.0296,4.00218 0.18277,7.62878 0.34004,8.0591 0.15723,0.43033 0.37726,1.85909 0.48895,3.17499 0.11165,1.31593 0.42206,3.18636 0.68982,4.15649 1.527,5.53283 2.312,13.40108 1.49581,14.99306 -0.36671,0.71533 -0.71511,0.88194 -1.84414,0.88194 -1.35474,0 -1.4006,0.0405 -1.71429,1.51547 -0.2207,1.03762 -0.17717,2.2849 0.13808,3.95562 0.37348,1.97933 0.37542,2.54254 0.0102,2.98242 -0.60946,0.73438 -1.07291,0.68121 -2.20635,-0.25319 z m -495.63531,-3.06084 c -1.4889,-0.32928 -2.92936,-0.78313 -3.20101,-1.00859 -0.27166,-0.22546 -1.03851,-0.38943 -1.70411,-0.36442 -2.32637,0.0875 -4.89836,-1.94137 -5.06688,-3.99683 -0.0532,-0.64939 -0.11942,-1.61731 -0.14705,-2.15089 -0.04,-0.77223 -0.22135,-0.97014 -0.88899,-0.97014 -1.28527,0 -1.75792,-0.82976 -1.50863,-2.64858 0.37369,-2.7263 1.73117,-4.82018 5.16882,-7.97267 1.76004,-1.61407 3.29627,-3.31791 3.41384,-3.78633 0.1278,-0.5092 -0.019,-1.24569 -0.36492,-1.83138 -1.00212,-1.69643 -0.7398,-2.56211 1.53798,-5.07555 2.27468,-2.51002 2.26038,-2.46367 2.13113,-6.90771 -0.0976,-3.35436 -0.86171,-7.08161 -2.82072,-13.75833 -0.37004,-1.26118 -0.93059,-3.20774 -1.24567,-4.32568 -0.31507,-1.11794 -0.7626,-2.18956 -0.99449,-2.38137 -0.23191,-0.19181 -0.79122,-0.63006 -1.24292,-0.97389 -0.6127,-0.46637 -0.86084,-1.0711 -0.97705,-2.38113 -0.0857,-0.96579 -0.31141,-2.61858 -0.50163,-3.67286 -0.19023,-1.05428 -0.34587,-2.5209 -0.34587,-3.25916 0,-0.73826 -0.2616,-1.64781 -0.58133,-2.02122 -0.43937,-0.51316 -0.61316,-1.59743 -0.7117,-4.44043 -0.12129,-3.49935 -0.0778,-3.80403 0.62344,-4.37189 l 0.7538,-0.61039 -0.75386,-1.3914 c -0.41463,-0.76528 -1.30973,-2.10578 -1.98913,-2.97891 -2.79616,-3.59351 -3.34965,-6.19853 -2.58593,-12.17083 0.38648,-3.02228 1.93197,-7.06003 3.35235,-8.75832 0.45871,-0.54846 0.83402,-1.36246 0.83402,-1.80889 0,-0.44642 0.23813,-1.0093 0.52917,-1.25085 0.29104,-0.24154 0.52917,-0.621 0.52917,-0.84324 0,-0.22225 0.37181,-0.95687 0.82624,-1.6325 1.2279,-1.82558 1.43087,-3.38671 0.61288,-4.71396 -0.57664,-0.93564 -0.62844,-1.36492 -0.34569,-2.86446 0.18293,-0.97014 0.39835,-2.12244 0.47871,-2.56067 0.0804,-0.43822 0.2354,-1.07809 0.34453,-1.42191 0.10913,-0.34383 0.25912,-1.73153 0.33332,-3.08378 0.14816,-2.70016 1.25806,-6.77172 2.59355,-9.5142 0.47242,-0.97014 1.09417,-2.53144 1.38166,-3.46957 0.66328,-2.16435 2.71251,-6.67496 3.59949,-7.92293 0.37321,-0.52509 0.83661,-1.51034 1.02977,-2.18944 1.05937,-3.72444 4.796,-11.48351 7.53804,-15.65266 l 2.10529,-3.20099 -0.005,-3.71415 c -0.004,-2.796 -0.23659,-4.67343 -0.94151,-7.594685 -1.17426,-4.866177 -2.45273,-8.958617 -3.58175,-11.465267 -0.48066,-1.06716 -0.99446,-2.25778 -1.14178,-2.64584 -0.39952,-1.05237 -1.77168,-4.14543 -2.14978,-4.8459 -0.18184,-0.33692 -0.33063,-0.98127 -0.33063,-1.43188 0,-0.45062 -0.23308,-1.12746 -0.51795,-1.5041 -0.28487,-0.37663 -0.52299,-0.93569 -0.52917,-1.24236 -0.006,-0.30666 -0.40743,-1.33854 -0.89168,-2.29305 -0.48426,-0.95452 -0.88113,-2.1752 -0.88195,-2.71263 -7e-4,-0.53744 -0.39977,-1.95737 -0.88658,-3.15542 -0.48681,-1.19804 -1.12531,-3.45707 -1.41889,-5.02007 -0.29358,-1.563 -0.75873,-3.63556 -1.03367,-4.6057 -0.27495,-0.97014 -0.60829,-2.39889 -0.74077,-3.175 -0.39046,-2.287432 -3.49008,-6.858331 -5.53431,-8.161234 -0.72737,-0.463586 -2.07674,-1.673843 -2.99862,-2.689458 -2.08498,-2.296993 -5.47868,-5.553156 -5.7879,-5.553336 -0.12716,-7.4e-5 -0.90698,-0.56473 -1.73293,-1.254795 -1.65288,-1.380941 -6.1899,-4.389783 -6.61933,-4.389783 -0.66578,0 -4.71433,-3.302409 -6.27611,-5.119436 -0.94653,-1.101235 -2.2766,-2.297406 -2.9557,-2.658153 -1.6235,-0.862432 -3.61363,-2.874443 -5.21781,-5.275188 -1.15864,-1.733959 -1.29714,-2.184107 -1.30254,-4.233333 l -0.006,-2.293055 1.05833,-0.08328 c 0.90428,-0.07115 1.2257,0.159936 2.20807,1.5875 2.02467,2.942234 2.8973,4.325299 3.60809,5.718563 0.38185,0.748467 1.16472,1.695845 1.73972,2.105282 0.575,0.409438 1.14547,1.059547 1.26771,1.444689 0.12224,0.385141 0.71856,0.956909 1.32515,1.270592 0.6066,0.313679 2.00526,1.304128 3.10814,2.200991 1.10288,0.896863 3.65184,2.63042 5.66435,3.852354 2.01251,1.221931 4.76979,3.250526 6.12728,4.507985 1.35749,1.257462 2.88115,2.511774 3.38591,2.78736 0.50477,0.275583 1.18028,0.901729 1.50114,1.391426 0.32087,0.489702 1.09624,1.023257 1.72306,1.185683 1.39299,0.360962 4.25783,4.174267 6.15337,8.190571 0.6868,1.455209 1.454,2.883959 1.70489,3.175 0.42232,0.48992 1.30562,3.688355 1.70493,6.173615 0.25084,1.56123 1.5709,7.14139 2.03611,8.60705 1.01115,3.18571 1.86848,5.61634 2.43911,6.91517 0.34099,0.77611 0.82122,2.12549 1.0672,2.99861 0.24597,0.87313 0.88245,2.38125 1.41439,3.35139 0.53193,0.97014 1.17262,2.47826 1.42375,3.35139 0.25112,0.87312 0.82176,2.25305 1.26809,3.0665 0.44632,0.81345 0.81502,1.68658 0.81934,1.94028 0.004,0.2537 0.31828,0.85815 0.69771,1.34322 0.37942,0.48507 0.69339,1.28318 0.69771,1.77358 0.004,0.49041 0.25557,1.24532 0.55834,1.6776 0.40258,0.57475 0.48794,1.2031 0.3177,2.33838 -0.18965,1.26462 -0.0943,1.73982 0.51443,2.56312 0.55917,0.756324 0.87705,2.057148 1.26304,5.168712 0.2837,2.28693 0.47917,4.34402 0.43438,4.57133 -0.0453,0.23016 1.09093,0.79649 2.5644,1.27812 3.56525,1.16535 11.76631,5.20094 13.7454,6.76386 0.88024,0.69513 1.94522,1.96513 2.36662,2.82222 1.62992,3.31506 2.5852,5.5944 2.5852,6.16839 0,0.32908 0.30298,1.09332 0.67329,1.6983 0.3703,0.60499 0.85318,1.81435 1.07305,2.68748 0.21988,0.87312 0.54084,1.905 0.71325,2.29305 0.17241,0.38806 0.49927,1.31198 0.72635,2.05317 0.4768,1.5563 1.01666,1.8641 2.51122,1.43176 0.95897,-0.2774 1.2017,-0.66163 2.31298,-3.66132 2.62177,-7.07695 3.28513,-8.41185 6.56736,-13.21576 1.57492,-2.30507 4.75424,-5.52211 6.76556,-6.84582 0.77611,-0.51078 1.80799,-1.28842 2.29306,-1.7281 0.48506,-0.43967 1.87354,-1.31279 3.0855,-1.94028 2.11663,-1.09587 2.20599,-1.19653 2.2652,-2.55198 0.0339,-0.77611 0.0853,-1.64924 0.1143,-1.94028 0.029,-0.29104 0.17229,-2.19604 0.31853,-4.233318 0.34173,-4.761024 0.51833,-6.435034 0.93042,-8.819434 0.18442,-1.06716 0.3475,-3.28966 0.36239,-4.93889 0.0367,-4.06313 0.0393,-3.96529 -0.20888,-7.76111 -0.12052,-1.84327 -0.20309,-3.80461 -0.18349,-4.35854 0.0196,-0.55393 -0.27614,-2.06206 -0.65723,-3.35139 -0.38108,-1.28933 -0.9565,-3.37611 -1.2787,-4.63729 -0.3222,-1.26119 -0.73053,-2.66201 -0.90739,-3.11295 -0.47886,-1.22092 -1.12078,-7.72014 -0.86368,-8.74449 0.25029,-0.997232 1.50286,-1.055983 1.3352,-0.0626 -0.0537,0.31789 0.0654,0.67869 0.26458,0.80178 0.19918,0.1231 0.36718,0.57163 0.37335,0.99675 0.0129,0.88809 0.7623,2.00765 1.34387,2.00765 0.21745,0 0.46867,-0.35719 0.55826,-0.79375 1.002,-4.882369 1.69996,-6.732893 3.12685,-8.290283 0.96676,-1.055183 1.60115,-1.001275 2.048,0.174032 0.29618,0.779039 0.18551,1.528621 -0.5675,3.843478 -1.07135,3.293453 -1.6274,7.065183 -1.34683,9.135653 0.14073,1.03852 -0.0178,1.87143 -0.5863,3.08091 -0.70455,1.49886 -0.74159,1.85244 -0.38679,3.69198 1.54686,8.02008 2.02201,16.7912 1.24729,23.02464 -0.89462,7.19822 -1.23348,11.154892 -1.2775,14.916972 l -0.0445,3.80449 1.90573,1.73574 c 1.04816,0.95467 2.0248,1.74296 2.17032,1.75177 0.14552,0.009 0.54329,0.29382 0.88393,0.63337 0.34063,0.33955 1.36118,1.10777 2.26787,1.70715 0.9067,0.59939 2.17581,1.52379 2.82024,2.05423 1.22274,1.00644 4.62801,3.61565 7.86738,6.0282 3.16521,2.35732 6.95812,5.53066 8.95356,7.49098 1.04,1.0217 2.01792,1.85763 2.17315,1.85763 0.15524,0 1.16373,0.83344 2.24109,1.85209 3.24891,3.07184 4.25551,3.89853 12.02034,9.87195 2.687,2.06708 6.17375,5.90134 7.37361,8.1085 0.70863,1.30353 1.28842,2.61097 1.28842,2.90541 0,0.29446 0.64538,0.96247 1.43419,1.48448 1.51572,1.00305 2.2041,2.03464 2.60735,3.9073 0.13528,0.62823 0.62712,1.44205 1.09298,1.80849 1.21922,0.95904 1.53806,2.08233 1.86173,6.55899 0.19935,2.75718 0.1514,4.94375 -0.15597,7.11335 -0.24409,1.72287 -0.45426,4.22985 -0.46704,5.57105 -0.0197,2.05995 -0.18203,2.68984 -1.04593,4.05695 -0.56248,0.89011 -1.12642,2.11475 -1.2532,2.72142 -0.12678,0.60667 -0.61934,1.63006 -1.09458,2.27421 -1.01331,1.37346 -2.08668,4.11753 -2.43924,6.23595 -0.19209,1.15414 -0.40482,1.4993 -0.92408,1.4993 -0.371,0 -0.68343,0.0397 -0.69428,0.0882 -0.0109,0.0485 -0.10021,4.29507 -0.19856,9.4368 -0.12513,6.54145 -0.33605,9.9842 -0.70243,11.46528 -0.28798,1.16417 -0.60087,3.30729 -0.6953,4.7625 -0.0944,1.45521 -0.23755,3.51896 -0.31804,4.58611 -0.38177,5.0612 -0.40619,7.30358 -0.0884,8.11389 0.19025,0.48507 0.33395,1.82416 0.31932,2.97576 -0.0203,1.59987 0.20023,2.55874 0.9349,4.06461 1.03875,2.12916 3.20021,5.30685 3.60971,5.30685 0.13885,0 1.10631,0.70294 2.14993,1.5621 1.84234,1.51673 2.0144,1.57843 5.92147,2.12337 2.21319,0.30868 4.27205,0.75667 4.57523,0.99554 1.43252,1.12857 3.85276,3.74046 4.05425,4.37529 0.12368,0.38968 0.61648,0.9181 1.09512,1.17425 0.47864,0.25616 0.95557,0.73452 1.05983,1.06306 0.10427,0.32851 0.66252,1.01869 1.24057,1.53374 1.02263,0.91116 1.20811,1.41305 1.06112,2.87126 -0.15297,1.51747 -0.0547,1.50498 -13.14263,1.66776 -4.55092,0.0566 -6.3709,-0.0398 -6.68514,-0.35402 -0.23749,-0.23749 -0.91599,-0.43441 -1.50778,-0.43762 -1.49424,-0.008 -3.89819,-1.42547 -3.89819,-2.29845 0,-0.59069 0.23695,-0.69134 1.5875,-0.6743 0.87312,0.0109 2.55795,0.14813 3.74405,0.30469 2.08176,0.27478 2.16385,0.25559 2.36673,-0.55276 0.24722,-0.98503 1.91206,-2.06502 3.18325,-2.06502 0.49219,0 0.98188,-0.14076 1.0882,-0.31278 0.10632,-0.17205 0.73474,-0.41437 1.39648,-0.53851 3.36318,-0.63094 1.89981,-2.64139 -2.46622,-3.38822 -2.10127,-0.35945 -3.06662,-0.73723 -4.41101,-1.72628 -0.94657,-0.69639 -2.37695,-1.66303 -3.17863,-2.1481 -0.80168,-0.48507 -1.99353,-1.57946 -2.64856,-2.43198 l -1.19096,-1.55004 v 1.08388 c 0,1.97005 -1.50693,2.70845 -3.46309,1.69686 -0.82983,-0.42912 -1.24219,-0.42263 -3.06929,0.0481 -3.5362,0.91119 -7.22595,-0.23286 -7.22595,-2.24052 0,-1.17561 1.03595,-1.57364 3.44135,-1.32222 2.34455,0.24505 7.28415,-0.79522 8.86054,-1.86602 0.0721,-0.049 -0.2973,-0.81995 -0.82085,-1.71332 -0.76799,-1.31048 -0.97244,-2.14849 -1.05818,-4.33746 -0.0584,-1.49224 -0.26997,-3.90022 -0.47003,-5.35107 -0.31034,-2.25059 -0.26412,-3.03819 0.31478,-5.36417 0.55931,-2.24726 0.61199,-3.02312 0.29986,-4.41593 -0.49764,-2.22057 -0.49654,-8.9847 0.002,-11.2181 0.21648,-0.97014 0.82175,-2.98336 1.34505,-4.47382 0.52329,-1.49046 0.82849,-2.83289 0.6782,-2.98318 -0.15029,-0.15028 -1.65603,-0.007 -3.34609,0.3192 -7.3323,1.41366 -8.36544,1.49822 -10.01562,0.81972 -3.10279,-1.27577 -4.61274,-2.16929 -4.97221,-2.94234 -0.2831,-0.60882 -0.66639,-0.79375 -1.64509,-0.79375 -0.70179,0 -1.61225,-0.23553 -2.02324,-0.5234 -0.6908,-0.48385 -0.7626,-0.46224 -0.95042,0.28608 -0.11174,0.44521 -0.058,1.35543 0.11949,2.0227 0.17746,0.66728 0.31505,2.88011 0.30575,4.9174 -0.0165,3.61153 0.83971,8.23433 1.85307,10.00526 0.86367,1.50931 2.20063,6.22983 2.46178,8.69196 0.33251,3.13501 0.80208,5.68945 1.14907,6.25089 0.13741,0.22235 0.27803,1.33207 0.31248,2.46605 0.0492,1.62021 -0.10053,2.28641 -0.69926,3.11061 -0.41904,0.57686 -0.92081,1.68384 -1.11504,2.45995 -0.19423,0.77611 -0.72493,2.73766 -1.17934,4.359 -0.77223,2.75536 -0.79531,3.10098 -0.35334,5.29166 0.26007,1.28908 0.64381,2.87507 0.85277,3.52439 0.36388,1.13079 0.43413,1.16949 1.66422,0.91694 0.70637,-0.14499 3.66556,-0.26921 6.57598,-0.27595 l 5.29167,-0.0123 3.09329,1.47648 3.09329,1.47644 -0.0629,1.77811 c -0.0346,0.97793 -0.18929,1.85617 -0.34373,1.95164 -0.15444,0.0955 -0.8628,-0.0696 -1.57414,-0.36686 -1.67896,-0.7015 -1.70983,-0.6967 -2.27184,0.35342 -0.26308,0.49156 -1.34291,1.38842 -2.39962,1.99301 -1.84072,1.05315 -2.09313,1.09996 -6.01947,1.11633 -4.31125,0.018 -6.57364,-0.24758 -7.30898,-0.85785 -0.50976,-0.42308 -1.55164,-3.30471 -1.55164,-4.29164 0,-0.36735 -0.2325,-0.9004 -0.51667,-1.18456 -0.28417,-0.2842 -0.99855,-2.02099 -1.5875,-3.8596 -1.11477,-3.48008 -1.33007,-6.10344 -0.72241,-8.80251 1.04337,-4.63435 1.37688,-6.73369 1.1888,-7.48306 -0.14216,-0.56642 0.0122,-1.10231 0.46687,-1.6205 0.98253,-1.11987 0.89661,-4.78442 -0.16471,-7.02485 -0.43367,-0.91548 -0.75964,-1.78861 -0.72436,-1.94027 0.14189,-0.6101 -0.5315,-3.86349 -0.98444,-4.75616 -0.26584,-0.52394 -0.48336,-1.23076 -0.48336,-1.57071 0,-0.33994 -0.45548,-1.10189 -1.01217,-1.69321 -0.90279,-0.95894 -1.0587,-1.48189 -1.44263,-4.83903 -0.23674,-2.07014 -0.3992,-5.24514 -0.36101,-7.05555 0.0382,-1.81041 -0.0478,-5.04228 -0.19112,-7.18193 -0.25269,-3.773 -0.23115,-3.95377 0.71469,-5.99722 1.77237,-3.82912 1.84455,-4.32693 1.45124,-10.00918 -0.2464,-3.55988 -0.7,-5.10261 -1.904,-6.47563 -0.83331,-0.95029 -0.34608,-1.04723 1.39426,-0.27739 0.91179,0.40332 1.74934,1.06964 1.97951,1.57481 0.21943,0.48162 0.85975,1.11394 1.42291,1.40517 0.56317,0.29122 1.18425,0.97354 1.38017,1.51627 0.52567,1.45614 0.51134,6.71986 -0.0238,8.74789 -0.38437,1.45662 -0.38494,2.07116 -0.003,3.52778 0.2542,0.97013 0.46524,2.12448 0.46898,2.5652 0.005,0.54274 0.31986,0.92487 0.97695,1.18421 0.53357,0.21059 1.20826,0.52788 1.4993,0.70509 0.29104,0.1772 1.08479,0.56273 1.76389,0.85673 0.6791,0.294 1.88711,0.84644 2.68447,1.22763 0.79737,0.3812 1.98799,0.6926 2.64584,0.69201 1.51292,-10e-4 8.27365,-1.28634 9.61626,-1.82773 1.13238,-0.45662 2.46625,-3.06413 3.52727,-6.89527 0.66852,-2.4139 2.15285,-5.96799 2.83918,-6.79815 1.23124,-1.48927 2.03262,-8.08704 2.10582,-17.33716 0.034,-4.30218 -0.0549,-5.2758 -0.53161,-5.82083 -0.31486,-0.35998 -0.75975,-1.45663 -0.98862,-2.437 -0.26199,-1.1222 -0.78388,-2.12957 -1.40889,-2.71947 -0.546,-0.51534 -1.27134,-1.53885 -1.61185,-2.27446 -0.34051,-0.73561 -1.01671,-1.76391 -1.50266,-2.28511 -0.48595,-0.5212 -1.06198,-1.25499 -1.28007,-1.63064 -1.5338,-2.64193 -2.26205,-3.62434 -2.96622,-4.00146 -0.4432,-0.23736 -1.12917,-0.95477 -1.5244,-1.59425 -0.42119,-0.6815 -1.46365,-1.53692 -2.5189,-2.06694 -3.09731,-1.55569 -6.04585,-3.98284 -15.05158,-12.39001 -2.07185,-1.93415 -9.62408,-7.79319 -12.07614,-9.3687 -0.5128,-0.32949 -1.54468,-1.17381 -2.29305,-1.87626 -0.74838,-0.70245 -1.75756,-1.54158 -2.24263,-1.86473 -1.42888,-0.9519 -4.73044,-3.66646 -5.14858,-4.23319 -0.26011,-0.35253 -0.68568,-0.44808 -1.30425,-0.29283 -1.30284,0.327 -3.28158,-1.11455 -4.66401,-3.39781 -1.30761,-2.15968 -1.5405,-2.17561 -4.52141,-0.30917 -2.79567,1.75045 -6.07163,5.03232 -8.3273,8.34231 -1.94275,2.85066 -6.02066,10.48765 -6.02066,11.27513 0,0.24687 -0.77263,2.81176 -1.71696,5.69975 -1.67425,5.1203 -2.97319,8.03595 -4.22264,9.47832 -0.78325,0.90418 -1.65155,2.82998 -1.99155,4.41704 -0.14531,0.67831 -0.375,1.39205 -0.51041,1.58608 -0.13541,0.19403 -0.69577,1.5434 -1.24524,2.99861 -0.54947,1.45521 -1.11921,2.80459 -1.26607,2.99861 -0.14687,0.19403 -0.45797,1.06716 -0.69134,1.94028 -0.23337,0.87313 -1.04264,2.62861 -1.79838,3.90108 -0.75574,1.27246 -1.37408,2.66468 -1.37408,3.09381 0,0.42913 -0.39296,1.74733 -0.87325,2.92933 -0.64002,1.5751 -0.78135,2.32081 -0.52917,2.79202 0.18925,0.35361 0.34409,0.99975 0.34409,1.43587 0,0.79918 -2.97621,5.58482 -5.16718,8.30865 -0.65055,0.80876 -1.18282,1.56496 -1.18282,1.68043 0,0.11547 0.57501,-0.0303 1.2778,-0.32396 1.785,-0.74581 2.21359,-0.67493 2.63783,0.43624 0.49143,1.28717 0.14334,1.82277 -3.75847,5.78302 -5.2733,5.35226 -9.96496,7.90635 -14.44466,7.8635 -2.9129,-0.0279 -6.4501,-0.47183 -7.32014,-0.91878 -0.94683,-0.4864 -0.77589,-1.87073 0.29102,-2.35685 0.49961,-0.22763 1.01554,-0.35562 1.14653,-0.28441 0.13098,0.0712 1.98439,0.0189 4.1187,-0.11622 3.24706,-0.20559 4.1973,-0.40621 5.82083,-1.22894 2.36757,-1.19978 8.11389,-5.71142 8.11389,-6.37049 0,-0.97267 -0.73716,-0.84721 -3.94538,0.6715 -4.58202,2.16902 -7.68336,3.39587 -8.58438,3.39587 -1.56789,0 -2.61616,-2.52258 -1.45033,-3.49013 0.26608,-0.22083 1.33765,-0.6526 2.38125,-0.95949 1.0436,-0.30688 2.13558,-0.76186 2.42662,-1.01106 0.29104,-0.2492 0.92604,-0.57448 1.41111,-0.72283 1.5904,-0.48642 6.50179,-3.36079 7.67292,-4.49054 0.63059,-0.60832 1.14652,-1.33396 1.14652,-1.61254 0,-0.27859 0.33666,-1.05124 0.74813,-1.71701 l 0.74812,-1.21048 -0.74812,-0.69698 c -1.03409,-0.9634 -0.9514,-1.40502 0.6189,-3.3053 0.75186,-0.90985 1.87272,-2.9512 2.49081,-4.53632 0.61808,-1.58512 1.73566,-3.83454 2.48351,-4.99871 1.51853,-2.36389 2.68162,-5.01298 4.49174,-10.23056 0.67314,-1.94027 1.86142,-4.83732 2.64062,-6.43789 1.23327,-2.53327 1.39046,-3.12463 1.21385,-4.56672 -0.12723,-1.03886 -0.60282,-2.21351 -1.27537,-3.15002 -0.58987,-0.82137 -1.16472,-2.02072 -1.27745,-2.66522 -0.2611,-1.4928 -1.12611,-4.38925 -1.71958,-5.75792 -0.25239,-0.58209 -0.56513,-1.45521 -0.69496,-1.94028 -0.35774,-1.33651 -1.80321,-4.93717 -3.06311,-7.6302 -0.7315,-1.56359 -3.86684,-4.18039 -5.76014,-4.80749 -0.59034,-0.19554 -2.08009,-0.81241 -3.31058,-1.37084 -1.23049,-0.55843 -3.25256,-1.36968 -4.4935,-1.80277 l -2.25626,-0.78744 -0.79816,0.74916 c -2.4283,2.27919 -3.34113,3.36133 -4.01076,4.75466 -2.69375,5.60506 -3.36643,7.1045 -4.1755,9.30742 -0.49882,1.35819 -1.93775,4.52218 -3.19762,7.03107 -1.25988,2.5089 -2.29068,4.74292 -2.29068,4.9645 0,0.22157 -0.72198,1.88625 -1.6044,3.69929 -2.51019,5.15745 -3.26695,9.3558 -3.476,19.28406 -0.0409,1.94214 -0.24114,3.43755 -0.50248,3.75245 -0.23897,0.28795 -0.656,1.58223 -0.92673,2.87619 -0.50795,2.42775 -0.71448,2.81489 -2.45512,4.60205 -2.42851,2.49341 -4.14525,9.37228 -3.43683,13.77117 0.27904,1.73268 0.7687,2.75385 2.686,5.60155 2.55142,3.78955 2.89333,5.21806 1.3028,5.44322 -0.73335,0.10382 -0.80936,0.26518 -0.66474,1.41111 0.15709,1.24481 1.14553,5.36536 2.1721,9.055 0.26992,0.97014 0.59731,2.55764 0.72752,3.52778 0.13022,0.97014 0.76316,2.95451 1.40655,4.40972 0.64339,1.45521 1.59207,4.15396 2.10817,5.99722 0.51611,1.84327 1.31838,4.62139 1.78284,6.17361 0.9641,3.22203 1.93866,8.29493 1.93866,10.09136 0,0.66931 0.25206,1.57679 0.56013,2.01662 0.44735,0.63869 0.55397,1.73767 0.52956,5.45836 -0.0349,5.31846 0.20153,6.10766 1.4721,4.914 0.45929,-0.43148 1.19923,-0.78451 1.64433,-0.78451 0.68442,0 0.77552,0.13441 0.59056,0.87137 -0.2033,0.80997 -0.1302,0.86801 1.03785,0.82412 1.33337,-0.0501 2.05748,0.46214 2.43483,1.72261 0.30413,1.01583 -0.58281,1.48463 -3.62345,1.91527 -1.28564,0.18207 -2.49178,0.48528 -2.68033,0.67384 -0.18854,0.18852 -0.76349,0.34279 -1.27765,0.34279 -1.22495,0 -3.14835,1.43225 -6.00973,4.47513 -2.64411,2.81185 -3.89081,5.09782 -4.12834,7.56984 -0.18433,1.91833 0.27908,2.77995 1.46179,2.71797 0.41602,-0.0219 1.47078,0.13187 2.3439,0.34145 7.97139,1.91361 9.43219,1.92405 13.2034,0.0945 3.66639,-1.7787 5.67616,-3.25377 6.39942,-4.69681 0.87794,-1.75168 3.01428,-5.06635 4.29788,-6.66842 0.63059,-0.78704 1.14652,-1.57864 1.14652,-1.75912 0,-0.18045 0.43461,-0.49336 0.96579,-0.69533 0.82681,-0.31432 1.05838,-0.25283 1.60921,0.42743 0.83177,1.02718 0.61077,1.85395 -1.25947,4.7117 -0.82055,1.25381 -2.34485,3.63876 -3.38733,5.29992 -1.60092,2.55101 -2.2624,3.25769 -4.25725,4.54815 -1.29901,0.84032 -3.40564,2.026 -4.68141,2.6349 -2.06436,0.9852 -2.64396,1.10246 -5.26775,1.06567 -1.6215,-0.0229 -4.16637,-0.31076 -5.65528,-0.64001 z m 32.82335,-106.33096 c 0.2161,-0.26038 0.29404,-0.5723 0.1732,-0.69314 -0.2868,-0.2868 -1.53805,0.38534 -1.53805,0.82621 0,0.50231 0.91127,0.41346 1.36485,-0.13307 z m -28.65618,93.66084 c -0.46184,-0.51033 -0.52771,-0.94922 -0.30403,-2.02579 0.22812,-1.09795 0.56626,-1.53331 1.68142,-2.16496 0.76773,-0.43483 1.87213,-0.79671 2.45421,-0.80416 1.47957,-0.019 3.60061,-1.10098 5.46806,-2.78948 1.98223,-1.79229 2.79393,-2.08753 3.4127,-1.24132 0.9571,1.30891 0.48743,2.44408 -2.19795,5.31244 -0.81269,0.86805 -4.69216,2.60992 -6.11892,2.74733 -0.88489,0.0852 -1.83713,0.45092 -2.2955,0.88152 -0.96301,0.90474 -1.34379,0.92001 -2.09999,0.0844 z m 348.454592,-5.68879 c -4.081815,-0.46633 -5.818823,-2.56861 -5.66547,-6.85683 0.0568,-1.58852 0.150918,-1.76364 1.138026,-2.11666 0.591855,-0.21167 1.568873,-0.74204 2.171136,-1.1786 0.602262,-0.43657 1.296105,-0.79375 1.541921,-0.79375 0.245815,0 0.697583,-0.22009 1.003897,-0.48908 0.647457,-0.56858 4.505378,-2.22498 6.554178,-2.81407 0.77612,-0.22315 1.57456,-0.51147 1.77431,-0.64071 0.19978,-0.12924 1.60288,-0.72743 3.11799,-1.3293 4.02749,-1.59989 5.16939,-2.24612 7.20877,-4.07972 1.76424,-1.5862 1.83366,-1.71822 1.83366,-3.48714 0,-1.40796 -0.23216,-2.20581 -0.99137,-3.40689 -0.54529,-0.8626 -1.23317,-2.04462 -1.52869,-2.6267 -0.76539,-1.50763 -4.89663,-8.36435 -5.42005,-8.99584 -0.24126,-0.29104 -1.42818,-2.51354 -2.63761,-4.93888 -1.20946,-2.42535 -2.37473,-4.72723 -2.5895,-5.11528 -0.21477,-0.38806 -1.00807,-1.89618 -1.76291,-3.35139 -0.75488,-1.45521 -1.66389,-2.92121 -2.02005,-3.25779 -0.35621,-0.33657 -0.77594,-0.81663 -0.93275,-1.0668 -0.15685,-0.25016 -0.72172,-0.73251 -1.255294,-1.07187 -0.533577,-0.33937 -0.970137,-0.83009 -0.970137,-1.09048 0,-0.26041 -0.293617,-0.85206 -0.652501,-1.31479 -0.358881,-0.46273 -1.088425,-1.63507 -1.62119,-2.60521 -0.532765,-0.97014 -1.244565,-2.08139 -1.581785,-2.46945 -0.337221,-0.38805 -1.03946,-1.57868 -1.560548,-2.64583 -0.521053,-1.06715 -1.420142,-2.57528 -1.997922,-3.35139 -0.668867,-0.89841 -1.32207,-2.5006 -1.797861,-4.40972 -0.411057,-1.64924 -0.866141,-3.15736 -1.011344,-3.35139 -0.505777,-0.6758 -0.704885,-4.32376 -0.342935,-6.28189 0.433811,-2.34655 2.493433,-6.96208 3.909942,-8.76193 0.556436,-0.70702 1.011696,-1.42994 1.011696,-1.60649 0,-0.52366 4.859585,-4.69274 5.469961,-4.69274 0.120827,0 1.108644,-0.40661 2.195128,-0.90358 3.09352,-1.41501 4.66777,-1.90273 7.328,-2.2703 1.3582,-0.18766 2.91948,-0.42898 3.4695,-0.53627 2.52808,-0.4931 6.73947,-0.69163 10.28884,-0.48504 3.17369,0.18473 3.99062,0.12977 4.48479,-0.3017 0.39067,-0.34113 0.82702,-0.42645 1.23472,-0.24142 0.34675,0.15738 2.05924,0.39371 3.80549,0.52517 1.74625,0.13147 4.28625,0.48474 5.64444,0.78505 3.05382,0.67522 9.24211,1.26148 13.22917,1.25329 1.77095,-0.004 3.72078,0.22208 4.7625,0.55133 0.97014,0.30662 2.24014,0.56093 2.82222,0.56513 0.58209,0.004 1.842,0.24536 2.79975,0.5359 0.9578,0.29054 2.00403,0.44491 2.32499,0.34305 0.88593,-0.28119 5.17581,1.15714 5.43045,1.82076 0.12449,0.32445 -0.0419,0.8685 -0.38005,1.24208 -0.52991,0.58554 -0.95568,0.64059 -3.57325,0.462 -1.63446,-0.11151 -3.78848,-0.37645 -4.78681,-0.58876 -0.99829,-0.2123 -4.19633,-0.43011 -7.10674,-0.48402 -5.72911,-0.10611 -11.21012,-0.56891 -14.2875,-1.2064 -6.61586,-1.3705 -7.41652,-1.44854 -14.99306,-1.46132 -4.96913,-0.008 -8.39566,0.14223 -9.525,0.41869 -0.97014,0.23749 -2.31952,0.48041 -2.99862,0.53983 -6.1467,0.53787 -10.27518,2.36889 -13.405585,5.94554 -3.48675,3.98378 -4.183345,5.49069 -4.626328,10.00769 -0.333269,3.39826 -0.304342,4.30603 0.207292,6.50456 0.726052,3.12 3.744595,9.48332 5.354353,11.28739 0.649747,0.72816 1.181354,1.57837 1.181354,1.88935 0,0.89624 1.594804,2.81359 3.954504,4.75431 0.71978,0.59197 1.72221,1.89893 2.22763,2.90436 0.50547,1.00542 1.53614,2.90978 2.29045,4.23191 0.75431,1.32213 1.70618,3.30651 2.11526,4.40973 0.46778,1.26156 1.24658,2.46984 2.09885,3.25631 1.49998,1.38417 3.28814,3.6487 4.58393,5.80509 1.72451,2.86992 3.5433,6.61726 3.5433,7.30053 0,0.78276 1.49165,3.63274 3.42896,6.5514 1.06701,1.60755 1.21772,2.06174 0.94312,2.84261 -0.17978,0.51114 -0.67808,1.10446 -1.10734,1.31847 -0.42929,0.21401 -1.5379,1.04128 -2.46359,1.83836 -3.42755,2.95132 -6.2248,4.66669 -7.60994,4.66669 -0.30685,0 -0.64816,0.14601 -0.75844,0.32447 -0.37285,0.6033 -3.48724,2.16469 -5.10889,2.56134 -0.88629,0.21678 -2.32577,0.74544 -3.1989,1.17482 -0.87313,0.42938 -2.46064,1.06116 -3.52779,1.40396 -3.316083,1.06522 -3.90501,2.17484 -2.361498,4.4492 0.730564,1.0765 0.973344,1.19458 2.381248,1.15807 0.86226,-0.0222 2.7526,-0.23827 4.20076,-0.47982 1.60836,-0.26828 4.26015,-0.3702 6.81419,-0.26186 3.6618,0.15532 4.58361,0.0707 7.42114,-0.68129 1.78203,-0.47223 3.71627,-0.93906 4.29835,-1.03734 2.58312,-0.43621 4.29331,-1.00972 5.05323,-1.69467 0.72048,-0.64936 1.46897,-0.7734 6.17361,-1.02303 8.33113,-0.44201 8.472,-0.45502 9.47456,-0.8753 1.63992,-0.68747 1.66722,-2.34962 0.27351,-16.66022 -0.16062,-1.64923 -0.46063,-5.30048 -0.66668,-8.11389 -0.43219,-5.90082 -0.86255,-8.37778 -1.82983,-10.53202 -0.37937,-0.84491 -0.83474,-2.67934 -1.01187,-4.07651 -0.17713,-1.39718 -0.46701,-2.92839 -0.64414,-3.4027 -0.17713,-0.47431 -0.43822,-1.65613 -0.58021,-2.62627 -0.14199,-0.97013 -0.46944,-2.16076 -0.72771,-2.64583 -0.25827,-0.48507 -1.22047,-2.67592 -2.13826,-4.86856 -2.03376,-4.85879 -2.32819,-5.13074 -6.84981,-6.32631 -0.29105,-0.077 -1.73264,-0.22781 -3.20354,-0.33523 -2.28844,-0.16713 -3.06067,-0.062 -5.35094,0.72851 -1.47211,0.5081 -2.93268,0.92381 -3.24573,0.92381 -0.77435,0 -1.07252,-0.92781 -0.61842,-1.92445 0.59034,-1.29566 2.41004,-1.99538 5.71585,-2.19787 1.64923,-0.10102 3.12152,-0.29817 3.27173,-0.43811 0.15021,-0.13994 -0.62639,-0.70955 -1.72579,-1.2658 -1.09943,-0.55626 -2.54431,-1.38146 -3.21084,-1.83378 -0.66654,-0.45233 -1.97355,-1.20838 -2.90446,-1.68011 -2.77509,-1.40623 -2.7426,-2.8632 0.0357,-1.60248 0.84427,0.38311 1.93675,0.70004 2.42771,0.7043 0.49096,0.004 2.15784,0.53954 3.70417,1.18952 1.54633,0.64997 3.92275,1.50495 5.28095,1.89995 6.71646,1.95334 6.97918,2.00843 17.99166,3.77214 7.28712,1.16708 15.43862,3.06316 17.3881,4.04457 0.98679,0.49677 2.96627,1.05214 4.66052,1.30758 0.87312,0.13163 1.98437,0.43723 2.46944,0.6791 0.80268,0.40023 5.2627,1.41699 10.23056,2.33226 1.06715,0.19661 2.4959,0.50014 3.175,0.6745 0.67909,0.17436 1.93844,0.38317 2.79855,0.46402 1.62313,0.15258 2.67056,1.01732 2.32452,1.91909 -0.10132,0.26397 -0.18418,0.61502 -0.18418,0.7801 0,0.70055 -1.438,0.65315 -3.56246,-0.11742 -1.25208,-0.45415 -2.84215,-0.84699 -3.53353,-0.87298 -0.69134,-0.026 -1.6898,-0.2118 -2.21876,-0.41291 -0.52895,-0.20111 -1.53853,-0.36566 -2.24349,-0.36566 -0.70495,0 -2.55993,-0.38284 -4.12217,-0.85075 -1.56224,-0.46791 -3.5548,-0.96383 -4.42793,-1.10205 -0.87312,-0.13822 -3.41312,-0.84821 -5.64444,-1.57777 -11.15999,-3.64886 -16.47861,-4.63155 -19.20815,-3.54898 -0.86276,0.34216 -1.23639,0.30682 -2.19097,-0.20725 -0.63295,-0.34087 -1.23874,-0.53183 -1.3462,-0.42436 -0.10745,0.10746 0.23252,1.13006 0.75551,2.27243 0.523,1.14238 0.96185,2.71259 0.97522,3.48937 0.0205,1.1977 -0.089,1.41864 -0.72146,1.45398 -0.41018,0.0229 -0.92612,0.15312 -1.14653,0.28934 -0.47054,0.2908 -0.53615,1.49183 -0.0964,1.76363 0.41779,0.25821 1.06825,2.74329 1.43905,5.49796 0.38086,2.82953 1.26227,6.47178 1.96353,8.11389 0.56698,1.32771 1.58788,10.33727 1.57271,13.87975 -0.007,1.53816 1.54041,7.61825 2.16821,8.52164 0.13483,0.19403 0.45032,2.46179 0.70108,5.03948 l 0.45593,4.6867 -0.93398,1.83969 c -0.51368,1.01182 -1.19574,2.71281 -1.51568,3.77996 -0.57414,1.91509 -2.59718,5.09468 -3.43242,5.39471 -0.23636,0.0849 -0.70457,0.0131 -1.04045,-0.15956 -0.33588,-0.17268 -1.60588,-0.36759 -2.82222,-0.43314 -1.21634,-0.0655 -4.13346,-0.32946 -6.48254,-0.58645 -4.59913,-0.50314 -6.74691,-0.30932 -11.95677,1.07911 -2.6168,0.69737 -5.88268,1.2319 -7.05556,1.15478 -0.38805,-0.0254 -1.4993,-0.098 -2.46944,-0.16111 -2.00611,-0.1305 -6.7183,0.28285 -8.81946,0.7736 -1.56983,0.36664 -2.85215,0.36735 -6.038128,0.004 z m -332.110292,-3.0215 c -0.36508,-0.43988 -0.36313,-1.00309 0.0103,-2.98242 0.31524,-1.67072 0.35878,-2.91799 0.13809,-3.95561 -0.3137,-1.47495 -0.35956,-1.51548 -1.71431,-1.51548 -1.12902,0 -1.47741,-0.16661 -1.84415,-0.88194 -0.81618,-1.59198 -0.0312,-9.46024 1.49582,-14.99306 0.26776,-0.97014 0.57818,-2.84055 0.68985,-4.15648 0.11166,-1.31593 0.33169,-2.74468 0.48894,-3.175 0.15726,-0.43032 0.31027,-4.05692 0.34004,-8.0591 0.0429,-5.77464 -0.0455,-7.35934 -0.42826,-7.67703 -0.37453,-0.31083 -1.63797,0.15192 -5.65159,2.06995 -5.50415,2.63033 -8.68482,3.53437 -12.43659,3.53487 -1.59657,2.2e-4 -2.38165,-0.17451 -2.98716,-0.66483 -0.71859,-0.58187 -0.75981,-0.73932 -0.32936,-1.25798 0.77634,-0.93544 2.149,-1.50287 4.24758,-1.75585 4.29394,-0.51765 6.68471,-1.36135 13.1414,-4.63755 2.43341,-1.23475 3.58112,-1.48223 3.96833,-0.85572 0.58414,0.94516 0.87322,0.0924 0.84553,-2.49429 -0.0253,-2.35869 0.0786,-2.92686 0.60555,-3.31215 0.34981,-0.25579 0.81768,-0.39536 1.03969,-0.31017 0.66611,0.25561 1.31487,3.84938 1.77289,9.82078 0.11906,1.55222 0.35938,3.0896 0.53404,3.41639 0.17467,0.32679 0.31757,2.32944 0.31757,4.45034 0,3.2157 -0.10853,3.99591 -0.65345,4.6975 -0.47728,0.61449 -0.71908,1.7449 -0.89684,4.19271 -0.13385,1.84326 -0.38445,3.90701 -0.55688,4.58611 -0.79285,3.12262 -0.58061,11.15192 0.3602,13.62643 0.17716,0.46597 0.56018,2.43941 0.85115,4.38541 0.65996,4.41378 0.30831,6.65209 -1.21553,7.73716 -1.19611,0.85171 -1.54217,0.87881 -2.13289,0.16701 z m 482.96373,-30.97282 c -5.40505,-2.11254 -7.25703,-3.34107 -11.44606,-7.59281 -3.90179,-3.96025 -4.24991,-4.49585 -3.75846,-5.78302 0.42422,-1.11117 0.85285,-1.18205 2.63783,-0.43623 0.70277,0.29364 1.2778,0.4608 1.2778,0.37146 0,-0.0893 -0.7946,-1.21226 -1.7658,-2.49537 -0.97116,-1.28312 -2.01136,-2.80787 -2.31154,-3.38834 -0.45928,-0.88814 -0.71007,-1.02951 -1.58245,-0.89202 -2.06009,0.32467 -13.18913,-0.94191 -16.7416,-1.90535 -0.77612,-0.21048 -2.08725,-0.54459 -2.91367,-0.74247 -0.82641,-0.19788 -1.65967,-0.65336 -1.85169,-1.01218 -0.19205,-0.35882 -0.65871,-0.75065 -1.03706,-0.87073 -0.99096,-0.31452 -1.20178,-1.38659 -0.52868,-2.68825 0.54914,-1.06188 0.93317,-2.84757 2.07864,-9.66482 0.8472,-5.04188 1.6104,-8.4309 2.30399,-10.23055 0.37391,-0.97014 0.85284,-2.47827 1.0643,-3.35139 0.21145,-0.87313 0.5244,-1.905 0.69543,-2.29306 0.17103,-0.38805 0.57961,-1.86155 0.90798,-3.27445 0.65285,-2.80922 1.67897,-4.48765 2.23139,-3.64991 0.48606,0.73705 1.18632,0.31442 1.9781,-1.19377 0.90071,-1.71575 2.25241,-2.17865 3.49881,-1.19821 0.88448,0.69573 1.59667,0.87035 1.66684,0.4087 0.0222,-0.14552 0.0944,-0.73185 0.16051,-1.30296 0.0661,-0.57111 0.44221,-1.47383 0.8357,-2.00605 1.1424,-1.54517 1.14159,-8.26485 0,-10.84855 -1.02948,-2.32726 -1.70159,-6.0363 -1.89346,-10.44868 -0.0928,-2.13431 -0.34312,-5.30931 -0.55623,-7.05556 -0.21311,-1.74625 -0.38171,-3.88937 -0.37468,-4.7625 0.0127,-1.58288 -0.29845,-2.95161 -1.20301,-5.29167 -3.18887,-8.24928 -4.24159,-21.710505 -2.26223,-28.927752 0.18624,-0.6791 0.38563,-1.71097 0.44309,-2.29306 0.12298,-1.24585 0.30216,-1.7474 1.66727,-4.66688 0.56511,-1.20859 1.02746,-2.34009 1.02746,-2.51444 0,-0.17435 0.23813,-0.51463 0.52917,-0.75618 0.44559,-0.36981 0.52917,-0.30421 0.52917,0.41542 0,0.47002 0.18686,1.04144 0.41525,1.26983 0.50288,0.50289 -0.0471,3.94086 -1.19772,7.48698 -0.65719,2.02542 -0.73974,3.07537 -0.70753,8.995824 0.0473,8.684088 0.5648,11.861678 3.24612,19.931928 0.74137,2.23132 1.45437,4.96726 1.58447,6.07986 0.40188,3.43655 1.20699,2.61514 0.94414,-0.96325 -0.0427,-0.58135 0.0675,-1.3751 0.24493,-1.76389 0.17741,-0.38879 0.83316,-2.92939 1.45719,-5.64577 0.62403,-2.71639 1.2792,-5.30503 1.45595,-5.75254 0.42054,-1.06488 1.02386,-0.66483 1.02386,0.6789 0,0.58208 0.13663,0.97388 0.30367,0.87066 0.40683,-0.25144 2.30294,-4.26369 2.84851,-6.02758 0.46404,-1.50037 0.82596,-2.28381 2.60621,-5.64178 0.87451,-1.649468 1.46354,-2.292895 2.68073,-2.928222 3.2917,-1.71819 5.15309,-0.18126 2.79142,2.304858 -0.98259,1.034364 -1.03688,1.166234 -0.32953,0.800514 0.58748,-0.303757 2.15396,-0.394197 5.11528,-0.295317 4.58417,0.153067 6.37974,0.705087 8.73224,2.684597 1.75941,1.48042 5.25198,2.95053 7.78545,3.27706 2.69367,0.34718 5.76005,1.74097 6.08538,2.76604 0.19957,0.62877 2.73668,2.14753 3.58747,2.14753 0.19597,0 0.72052,0.38768 1.16565,0.8615 0.92872,0.98859 1.31301,3.69981 1.58764,11.20169 0.21414,5.84815 0.82903,10.38452 1.61876,11.942 1.38853,2.73843 2.47089,9.94738 1.85138,12.33092 -0.27499,1.05792 -0.46927,1.23472 -1.35686,1.23472 h -1.03589 l -0.26162,-2.99861 c -0.26261,-3.00968 -1.20037,-7.31806 -2.38037,-10.93611 -0.57566,-1.76507 -1.37958,-7.71195 -1.3353,-9.87778 0.01,-0.48507 -0.0657,-2.77998 -0.16803,-5.09981 -0.17501,-3.96681 -0.23939,-4.26371 -1.08158,-4.98812 -0.49251,-0.42364 -1.66106,-1.04562 -2.5968,-1.38218 -0.95144,-0.34223 -2.2455,-1.1902 -2.93603,-1.92394 -1.13407,-1.20507 -1.47912,-1.34777 -4.23333,-1.75072 -1.68741,-0.24687 -3.69277,-0.80075 -4.58611,-1.26666 -2.07211,-1.08001 -4.0713,-1.93301 -4.53172,-1.93301 -0.62385,0 -0.81227,-0.65663 -0.40618,-1.41542 0.34896,-0.65205 0.22609,-0.79595 -1.22961,-1.43987 -0.88953,-0.39348 -2.68439,-0.80488 -3.98858,-0.91422 -2.05535,-0.17231 -2.79308,-0.0517 -5.53713,0.9053 -1.74124,0.60726 -3.4315,1.38106 -3.75616,1.71957 -0.673,0.70174 -2.31782,4.51075 -2.85549,6.61269 -0.37585,1.46942 -0.68041,2.21987 -1.50361,3.70511 -0.48377,0.87283 -2.19837,10.14637 -2.38058,12.87545 -0.0774,1.16003 -0.23541,1.43117 -0.88794,1.52384 -0.43657,0.062 -0.81531,0.22075 -0.8417,0.35278 -0.0265,0.13202 -0.0864,5.32004 -0.13331,11.52893 -0.047,6.20889 -0.1857,11.68576 -0.30836,12.17083 -0.40249,1.59206 0.1718,1.95156 2.31334,1.44817 1.32503,-0.31146 4.53757,-0.40826 10.87628,-0.32773 7.48072,0.095 9.20379,0.21284 10.23055,0.69948 1.15923,0.54941 1.86355,0.75028 4.37681,1.24823 1.78358,0.35337 4.56315,2.61122 9.46111,7.6852 1.48217,1.53543 2.03708,1.92943 2.03708,1.44636 0,-1.22987 1.92589,-4.50304 3.95634,-6.72409 1.59145,-1.74086 2.46447,-2.373 4.14514,-3.00153 1.97742,-0.7395 2.12947,-0.87484 2.13448,-1.89974 0.007,-1.43126 0.42206,-2.05081 1.4538,-2.17004 0.45861,-0.053 2.09659,-0.2742 3.63996,-0.49154 6.50282,-0.91574 16.62172,0.70555 17.73703,2.8419 0.85146,1.631 -0.88879,2.05625 -5.55008,1.35623 -1.26118,-0.1894 -4.60329,-0.44577 -7.42696,-0.56971 -5.07421,-0.22273 -5.14406,-0.21557 -6.00879,0.61604 -0.48123,0.46276 -1.13372,1.2513 -1.45002,1.75231 -0.31634,0.50101 -1.59495,1.39807 -2.84138,1.99346 -4.00474,1.91296 -6.25461,5.3862 -6.51669,10.0602 -0.10679,1.9042 -0.031,2.73402 0.2497,2.73402 0.56635,0 2.0266,-1.62733 3.3226,-3.70279 1.28446,-2.05695 2.65433,-2.82384 5.65249,-3.16439 1.14984,-0.13061 2.70668,-0.55176 3.45962,-0.93589 1.89819,-0.96838 2.73999,-0.63744 2.73999,1.07719 0,1.1615 -0.17914,1.459 -1.34172,2.22838 -0.73798,0.48835 -1.96829,0.96373 -2.73403,1.0564 -2.70662,0.32752 -4.41163,1.04674 -4.95014,2.0881 -0.84886,1.64155 -2.64375,3.47188 -3.93273,4.01046 -1.03961,0.43438 -1.34906,0.43708 -2.14747,0.0188 -0.86476,-0.45309 -1.0178,-0.41413 -2.09786,0.53418 -1.31692,1.15629 -1.91054,1.26619 -2.56699,0.47523 -0.37338,-0.4499 -0.3496,-0.88067 0.13317,-2.41226 0.80525,-2.55453 0.7758,-3.74281 -0.0928,-3.74281 -0.41663,0 -1.11305,-0.64086 -1.79592,-1.65266 -1.02098,-1.51281 -5.60924,-6.10952 -7.88558,-7.90008 -0.51883,-0.40812 -2.09056,-1.02885 -3.49271,-1.37941 -1.40215,-0.35056 -3.15955,-0.90007 -3.90528,-1.22113 -1.17126,-0.50426 -2.42027,-0.55998 -9.17223,-0.40916 -4.29898,0.096 -8.84819,0.27623 -10.10937,0.40046 -2.17244,0.21399 -2.38122,0.31756 -3.96875,1.96891 -0.92163,0.95866 -1.6757,1.87036 -1.6757,2.02599 0,0.45839 -1.58873,1.8161 -2.13942,1.8283 -0.77442,0.0171 -1.4346,0.67719 -2.98813,2.98739 -2.667,3.96605 -5.38604,10.88113 -6.31144,16.05139 -1.21077,6.76445 -2.04968,10.79654 -2.55937,12.30125 -0.2872,0.84785 -0.39039,1.65962 -0.22927,1.80394 0.55368,0.496 2.69293,1.06425 4.00653,1.06425 0.73875,0 1.50777,0.23194 1.75444,0.52917 0.24154,0.29104 0.93567,0.53304 1.54248,0.53779 0.60685,0.005 1.73835,0.1481 2.51446,0.31858 0.77611,0.17047 2.64026,0.41815 4.14253,0.55039 2.67144,0.23517 2.73861,0.22149 3.05978,-0.62324 0.41727,-1.0975 1.00517,-1.31269 3.58627,-1.31269 1.53818,0 2.08781,-0.12794 2.08781,-0.48597 0,-0.26728 0.25598,-0.69843 0.56885,-0.95809 0.49135,-0.40777 0.70775,-0.31672 1.5875,0.66792 1.21441,1.35914 1.26821,1.92727 0.27051,2.85675 l -0.7481,0.69698 0.7481,1.21048 c 0.41148,0.66577 0.74814,1.43842 0.74814,1.71701 0,0.27858 0.51594,1.00422 1.14653,1.61254 1.17111,1.12975 6.08252,4.00412 7.67292,4.49054 0.48506,0.14835 1.12006,0.47363 1.41111,0.72283 0.29104,0.2492 1.38303,0.70418 2.42661,1.01106 2.35776,0.69334 2.86505,1.10438 2.86505,2.32147 0,1.10117 -0.96294,2.12815 -1.99541,2.12815 -0.84402,0 -4.03606,-1.27181 -8.52308,-3.39588 -3.20823,-1.5187 -3.9454,-1.64416 -3.9454,-0.67149 0,0.65907 5.74633,5.17071 8.11389,6.37049 1.62352,0.82273 2.57376,1.02335 5.82084,1.22894 2.1343,0.13513 3.98773,0.18743 4.11871,0.11622 0.59616,-0.3241 2.0549,0.74272 2.0549,1.5028 0,1.03344 -0.44962,1.29295 -2.82222,1.62893 -4.18913,0.59321 -6.86633,0.64522 -8.11389,0.15762 z m -50.75796,-17.99945 c -0.2214,-0.26681 -0.36674,-1.4763 -0.3285,-2.73403 0.0656,-2.15656 -0.0208,-2.41035 -1.96625,-5.78332 -1.11915,-1.94027 -2.63168,-4.24215 -3.36119,-5.11527 -0.72951,-0.87313 -2.01278,-2.69875 -2.85172,-4.05695 -0.83894,-1.35819 -1.73118,-2.64069 -1.98271,-2.85 -0.48049,-0.39977 -2.07839,-2.90199 -5.05111,-7.90972 -0.97903,-1.64924 -2.69438,-3.95404 -3.81184,-5.12179 -2.12785,-2.22357 -3.97206,-5.32234 -3.97206,-6.67415 0,-0.43709 0.3218,-1.08595 0.71515,-1.44191 0.70005,-0.63355 0.73766,-0.62167 1.7805,0.56268 0.58593,0.66544 1.31308,1.76552 1.6159,2.44462 0.30283,0.67909 1.28754,2.03517 2.18825,3.0135 2.37102,2.57527 3.19257,3.59952 4.79435,5.97715 1.90786,2.83198 2.25253,3.39304 2.6537,4.31985 0.18733,0.4328 1.13944,1.80342 2.11582,3.04583 0.97635,1.24241 1.77522,2.36057 1.77522,2.4848 0,0.22508 2.14806,3.52909 2.82102,4.33911 0.1947,0.23435 0.35398,0.56497 0.35398,0.73471 0,0.16974 0.59531,0.78809 1.32291,1.37411 0.78494,0.63219 1.81872,2.05495 2.54209,3.49862 0.67052,1.33823 1.57645,2.92947 2.01316,3.53609 l 0.79403,1.10295 3.1569,-0.1282 c 2.6802,-0.10883 3.27992,-0.0286 3.97136,0.53131 0.71526,0.57918 0.76377,0.77078 0.39815,1.57316 -0.24917,0.54689 -0.81051,0.99938 -1.39841,1.12722 -0.54018,0.11746 -1.35068,0.39286 -1.80111,0.61201 -0.45046,0.21915 -1.2537,0.36532 -1.78505,0.32484 -0.53132,-0.0405 -1.78919,0.32349 -2.79524,0.80883 -2.04466,0.98637 -3.31491,1.1177 -3.9073,0.40395 z m 8.82654,-8.65954 c -0.26402,-0.16527 -0.74288,-0.23176 -1.06412,-0.14775 -1.00891,0.26384 -5.13521,-5.97552 -5.70315,-8.62375 -0.29947,-1.3964 -0.84896,-2.32771 -2.47882,-4.20131 -2.50332,-2.87768 -6.15122,-8.00026 -6.98984,-9.81555 -0.17928,-0.38806 -1.05699,-1.30994 -1.95047,-2.04864 -0.89352,-0.73869 -1.92532,-1.92931 -2.29299,-2.64583 -0.36763,-0.71651 -1.62207,-2.24205 -2.78765,-3.39008 -1.75045,-1.72409 -2.14213,-2.32757 -2.2509,-3.46793 -0.0992,-1.04025 0.019,-1.46129 0.47982,-1.70787 0.49463,-0.2647 1.20484,0.26324 3.71619,2.76239 4.85454,4.83094 7.99106,8.59799 9.33126,11.20711 0.29796,0.58011 1.37908,2.40411 2.40249,4.05335 1.02337,1.64923 1.96264,3.23673 2.08721,3.52778 0.1246,0.29104 1.12797,1.88774 2.22976,3.54822 1.10176,1.66048 2.67335,4.27986 3.49243,5.82083 0.81908,1.54098 1.71482,3.0665 1.99055,3.39005 0.64283,0.75431 0.47089,2.16631 -0.21177,1.73898 z m 61.17474,-3.53458 c -0.8224,-1.33064 -0.82973,-2.57518 -0.0289,-4.88385 1.10878,-3.19644 1.8444,-4.59527 3.24408,-6.16886 0.6477,-0.72817 1.1776,-1.61331 1.1776,-1.96698 0,-1.47512 2.77728,-2.94038 5.20782,-2.74758 1.3287,0.1054 1.55518,0.0121 1.94698,-0.80167 0.34011,-0.70647 0.7124,-0.92568 1.59864,-0.94123 0.90992,-0.016 1.3007,-0.25945 1.84016,-1.14653 0.3767,-0.61944 0.77174,-1.12625 0.87782,-1.12625 0.91317,0 2.79284,1.27584 3.67616,2.49524 1.9456,2.68581 1.13608,4.03323 -1.4689,2.44497 -1.35618,-0.82686 -2.83721,-0.91382 -3.42854,-0.20131 -0.45145,0.54398 0.0652,1.0017 2.27348,2.01435 1.39901,0.64153 1.57053,1.8299 0.37697,2.61196 -1.23151,0.8069 -2.24109,0.47685 -4.355,-1.42375 -0.97353,-0.8753 -1.92497,-1.59146 -2.11434,-1.59146 -0.18937,0 -1.08836,0.32914 -1.99778,0.73142 -1.32073,0.58422 -1.63149,0.88417 -1.54415,1.49047 0.15001,1.04141 1.5178,1.64727 3.73285,1.65347 1.6612,0.005 1.90458,0.10375 2.28039,0.92858 0.65402,1.43546 -0.58275,2.25162 -3.41206,2.25162 -1.89206,0 -2.30788,-0.12285 -3.03481,-0.89662 -1.13965,-1.21311 -2.06601,-0.9925 -2.71724,0.64709 -0.29231,0.73589 -0.44428,1.42515 -0.33771,1.53169 0.10654,0.10655 0.75075,-0.008 1.43161,-0.25391 1.45538,-0.52629 2.34269,-0.0516 2.34269,1.25332 0,0.71277 -0.96287,1.95176 -1.51677,1.95176 -0.12456,0 -0.90759,0.48008 -1.74004,1.06684 -1.65887,1.16928 -3.90691,1.73102 -4.31098,1.07722 z m -425.7814,-10.47268 c -1.08824,-1.08825 -1.97862,-2.1198 -1.97862,-2.29234 0,-0.17255 -0.635,-0.98787 -1.41111,-1.81183 -0.77611,-0.82396 -1.41111,-1.63024 -1.41111,-1.79173 0,-0.16151 0.46403,-0.75768 1.0312,-1.32484 0.91172,-0.91172 1.27764,-1.03119 3.15839,-1.03119 2.24176,0 4.03409,-0.56823 3.80817,-1.20732 -0.19525,-0.55232 -3.24999,-0.26681 -5.46145,0.51046 -3.68497,1.29516 -4.51303,1.259 -7.69603,-0.33606 -1.57666,-0.79009 -3.02468,-1.43653 -3.21782,-1.43653 -0.19315,0 -1.826,-0.81363 -3.62856,-1.80807 -1.80256,-0.99443 -3.84704,-1.95533 -4.54328,-2.13532 -1.42527,-0.36845 -2.25444,-0.71874 -6.0284,-2.54675 -1.45521,-0.70487 -2.9268,-1.27919 -3.27021,-1.27627 -0.63443,0.005 -2.9117,-1.29689 -3.8172,-2.18292 -0.27353,-0.26763 -2.40231,-1.62937 -4.73065,-3.02609 -3.75371,-2.25176 -5.39002,-3.56276 -8.46256,-6.78013 -0.46324,-0.48507 -1.39244,-1.94675 -2.06491,-3.24819 -1.01771,-1.9696 -1.14105,-2.43397 -0.73581,-2.77029 0.38083,-0.31606 0.79597,-0.15922 1.90632,0.72019 0.7807,0.61833 1.41946,1.27915 1.41946,1.46849 0,0.54185 3.57592,4.18258 4.10812,4.18258 0.2629,0 0.78891,0.31091 1.16891,0.69091 0.38001,0.38001 1.35226,1.02831 2.16056,1.44068 0.8083,0.41236 2.44207,1.42831 3.63061,2.25766 2.35722,1.64486 4.3472,2.72466 6.44969,3.49972 4.51815,1.66556 12.05269,4.92 17.3239,7.48281 l 6.0904,2.96109 1.8471,-0.50041 c 1.01591,-0.27522 2.7996,-0.76133 3.96377,-1.08024 3.03504,-0.83141 5.31282,-0.56365 7.76794,0.91313 3.81068,2.29216 3.4636,3.8466 -1.3739,6.15309 -1.82437,0.86986 -3.47399,1.58155 -3.66582,1.58155 -0.19183,0 -0.538,0.228 -0.76927,0.50667 -0.33741,0.40656 -0.17169,0.87613 0.83875,2.37654 0.69258,1.02843 1.25924,2.04583 1.25924,2.26088 0,0.39136 -1.11494,1.55869 -1.48874,1.55869 -0.10915,0 -1.08883,-0.89038 -2.17708,-1.97862 z m 445.41419,1.55529 c -0.67021,-0.67022 -0.50278,-1.47782 0.63091,-3.0428 0.63144,-0.87169 1.72787,-1.77714 2.73403,-2.25779 2.04971,-0.97919 2.41804,-1.69193 3.29949,-6.38477 0.37088,-1.97446 0.88766,-4.67081 1.14843,-5.9919 0.33126,-1.67803 0.373,-2.79445 0.13847,-3.70416 -0.38121,-1.47863 0.0881,-3.12774 0.98841,-3.47322 0.8461,-0.32468 1.98,1.14715 2.16828,2.81448 0.30018,2.65801 0.0592,7.41985 -0.45152,8.92428 -0.27552,0.81151 -0.40612,1.72264 -0.29016,2.02474 0.55922,1.45734 -1.81688,6.35533 -4.15262,8.55997 -2.87574,2.71437 -5.11739,3.62751 -6.21372,2.53117 z M 167.72358,155.01211 c -0.47889,-0.33543 -0.78482,-0.91896 -0.78602,-1.4993 -0.004,-1.45964 -1.6425,-11.06696 -2.05849,-12.06264 -0.20264,-0.48507 -0.54505,-1.97694 -0.76087,-3.31526 -0.21587,-1.33832 -0.67871,-3.0052 -1.02856,-3.70417 -0.34985,-0.69896 -0.74997,-1.74709 -0.88914,-2.32918 -0.13918,-0.58208 -1.01858,-2.64583 -1.95425,-4.58611 -2.1687,-4.49721 -2.97759,-6.3547 -3.53343,-8.11389 -0.24518,-0.77611 -0.64897,-1.64923 -0.89721,-1.94027 -0.24829,-0.29105 -1.23268,-1.81993 -2.18754,-3.39752 -0.95487,-1.57759 -2.29923,-3.64134 -2.98747,-4.58611 -0.68823,-0.94477 -1.62849,-2.41328 -2.0894,-3.26336 -0.46093,-0.85008 -1.07618,-1.98232 -1.36722,-2.51608 -0.62731,-1.15051 -3.98561,-4.508464 -5.4204,-5.419858 -0.90607,-0.575557 -0.98598,-0.775297 -0.77223,-1.930214 0.65426,-3.53503 0.75826,-3.21626 -1.89706,-5.81653 -1.35449,-1.32639 -2.60974,-2.32074 -2.78948,-2.20967 -0.17974,0.11108 -0.70263,-0.0882 -1.16202,-0.44284 -0.75949,-0.58635 -5.41207,-1.81205 -8.94909,-2.35761 -0.77611,-0.11971 -2.12549,-0.44035 -2.99861,-0.71254 -0.87313,-0.27219 -3.41313,-0.66224 -5.64445,-0.86678 -2.23132,-0.20454 -5.08882,-0.53972 -6.35,-0.74487 -2.86868,-0.46661 -13.459247,-0.89102 -16.051423,-0.64325 -0.582083,0.0556 -1.733021,-0.0253 -2.557639,-0.17977 -1.480997,-0.2775 -1.499376,-0.26853 -1.504139,0.73429 -0.0095,1.97846 -0.356552,2.60273 -1.447412,2.60273 -0.753533,0 -1.017199,0.16871 -1.017199,0.65088 0,1.12424 -1.231618,1.93307 -2.54374,1.6705 -0.63821,-0.12773 -3.065427,-0.29015 -5.393761,-0.36094 -3.796736,-0.11543 -8.744198,-0.67593 -13.758334,-1.55869 -0.970139,-0.1708 -3.246756,-0.887 -5.059152,-1.59156 -3.906485,-1.51863 -6.305409,-1.86762 -8.905522,-1.29557 -1.050679,0.23116 -3.660776,0.54502 -5.800232,0.69745 -2.36601,0.16857 -4.316095,0.49755 -4.977871,0.83976 -0.599193,0.30986 -2.504934,0.66958 -4.242047,0.80071 -2.651373,0.20015 -3.348003,0.13789 -4.370741,-0.3906 -0.669149,-0.34578 -1.393402,-0.86995 -1.609443,-1.16481 -0.335103,-0.45743 -0.487715,-0.38476 -1.039742,0.49518 -0.355847,0.56722 -0.655355,1.05127 -0.66555,1.07567 -0.01023,0.0244 -0.367665,0.15159 -0.79428,0.28263 -1.055722,0.32426 -2.374102,-0.97017 -2.072968,-2.03531 0.461197,-1.63131 0.591478,-6.29004 0.189456,-6.77446 -0.625697,-0.75392 0.346283,-10.28832 1.156367,-11.34321 0.178752,-0.23277 0.278377,-0.86786 0.221368,-1.41133 -0.05701,-0.54346 0.01235,-1.17549 0.153705,-1.4045 0.580919,-0.93999 -0.566067,-0.79766 -1.717248,0.21311 -0.791831,0.69523 -1.616283,1.08565 -2.292604,1.08565 -1.6551,0 -5.157435,1.93532 -5.819592,3.21578 -1.640008,3.17143 -2.295815,7.0977 -1.558626,9.3314 0.587407,1.77987 2.136585,3.42355 3.772945,4.0031 1.830363,0.64827 2.162697,0.97225 2.423534,2.36264 0.483489,2.5772 -1.426714,2.9444 -4.842224,0.93082 -4.10957,-2.42275 -5.10924,-3.92732 -5.624952,-8.46591 -0.190758,-1.67882 -0.43232,-3.13788 -0.536795,-3.24236 -0.224282,-0.22428 -6.4713812,-0.0917 -8.2530724,0.1752 -0.679097,0.10172 -2.742847,0.22399 -4.58611094,0.27172 -3.55398586,0.092 -7.17471246,0.84294 -10.93610866,2.26806 -1.261181,0.47785 -2.848681,1.06732 -3.527778,1.30996 -0.679097,0.24263 -2.028472,0.72558 -2.998611,1.07321 -0.970139,0.34763 -2.398889,0.69717 -3.175001,0.77675 -0.776111,0.0796 -1.887361,0.35829 -2.469444,0.61937 -2.416281,1.08377 -4.01259,1.62422 -6.350001,2.14988 -3.173063,0.71359 -6.208938,1.70732 -7.864045,2.57415 -0.719497,0.37682 -1.863803,0.87784 -2.5429,1.11338 -0.679097,0.23554 -2.072499,0.80679 -3.096451,1.26944 -1.023948,0.46265 -2.055823,0.84341 -2.293055,0.84614 -0.237229,0.003 -1.542578,0.60996 -2.900772,1.34939 -1.358195,0.73944 -3.580695,1.71606 -4.93889,2.17028 -1.358194,0.45421 -3.421944,1.1996 -4.586111,1.65643 -1.164167,0.45683 -3.148542,1.13906 -4.409723,1.51609 -3.549607,1.06113 -8.190742,2.7429 -9.226653,3.34339 -0.515006,0.29854 -1.123399,0.54279 -1.351982,0.54279 -0.228582,0 -1.500699,0.476247 -2.826921,1.058334 -1.326225,0.582074 -2.752485,1.058324 -3.169475,1.058324 -0.41698,0 -1.27849,0.396877 -1.91444,0.881934 -0.63596,0.48507 -1.37145,0.88195 -1.63441,0.88195 -0.26296,0 -1.99422,0.73018 -3.84725,1.62263 -1.85303,0.89245 -3.76602,1.81091 -4.25109,2.04103 -0.79593,0.37759 -0.90567,0.69243 -1.12518,3.22806 -0.26963,3.11459 -1.21573,6.19573 -2.46865,8.03956 -1.034104,1.52184 -3.692539,3.76524 -4.465216,3.76811 -0.321197,10e-4 -1.060234,0.25106 -1.642311,0.55525 -1.471317,0.76888 -4.047367,0.98636 -5.079547,0.42883 -1.3505,-0.72947 -1.91841,-3.15052 -2.63116,-11.21681 -0.36876,-4.17336 -0.9307,-8.96407 -1.12226,-9.56761 -0.40035,-1.261351 -3.0904,-2.180398 -3.92861,-1.342181 -0.82478,0.824764 -5.12199,0.183347 -6.49259,-0.969104 -0.30632,-0.25757 -0.73557,-0.468307 -0.95389,-0.468307 -0.79861,0 -6.71088,-2.05547 -7.61361,-2.64697 -1.01891,-0.66761 -1.27561,-2.18133 -0.42525,-2.50765 0.27746,-0.10647 1.03152,0.0433 1.6757,0.33285 0.64417,0.28953 2.04434,0.71413 3.11149,0.94355 1.06716,0.22942 3.33815,0.8823 5.04666,1.45084 1.7085,0.56855 3.2769,0.92833 3.48533,0.79952 0.20842,-0.12882 1.5876,-0.25181 3.06483,-0.27331 l 2.68588,-0.0391 0.35518,-1.5875 c 0.56057,-2.50553 0.67786,-2.59076 3.23631,-2.35185 1.23914,0.11572 3.45196,0.48933 4.91739,0.83027 3.343152,0.77779 4.970003,2.08685 6.529004,5.253637 0.62041,1.260234 1.28696,2.389568 1.48123,2.509625 1.03429,0.63923 3.5554,0.44971 5.42915,-0.408127 1.07485,-0.492067 2.17774,-0.894684 2.45086,-0.894684 0.27313,0 1.40489,-0.454637 2.51501,-1.010304 1.11013,-0.555667 3.52654,-1.529447 5.3698,-2.163937 1.843268,-0.6345 3.94038,-1.44985 4.660255,-1.81191 0.719875,-0.36205 1.525252,-0.65828 1.78973,-0.65828 0.264474,0 2.691737,-0.88181 5.393913,-1.95957 5.603822,-2.23509 7.230957,-2.81049 8.961886,-3.16916 0.674638,-0.1398 3.929013,-1.57144 7.231945,-3.18143 3.302935,-1.60999 7.751583,-3.51365 9.885889,-4.23035 2.134305,-0.7167 4.061033,-1.44719 4.281621,-1.62332 0.220585,-0.17611 1.41121,-0.54737 2.645834,-0.82502 1.23462,-0.27764 3.832268,-1.00564 5.772546,-1.61778 1.940277,-0.61215 4.768134,-1.47528 6.284122,-1.91809 1.515989,-0.4428 2.847693,-0.89644 2.959344,-1.00809 0.970869,-0.97087 -8.306055,-0.57455 -15.240689,0.6511 -4.591791,0.81157 -8.741058,1.02885 -10.234589,0.53594 -0.81389,-0.26861 -1.40885,-0.29557 -1.685315,-0.0764 -0.540504,0.42856 -5.522831,0.86689 -11.022443,0.9697 -4.349444,0.0813 -7.245538,0.28756 -12.511822,0.89104 -5.898756,0.67595 -16.528197,1.38337 -23.812507,1.58478 -4.074571,0.11267 -7.88455,0.34036 -8.466627,0.50598 -1.389157,0.39527 -13.411647,1.17099 -17.592477,1.13511 -1.33268,-0.0114 -2.8408,0.1385 -3.35139,0.3332 -0.5106,0.1947 -3.53097,0.41789 -6.71195,0.49598 -4.89678,0.12021 -5.88884,0.23725 -6.47006,0.76323 -0.65124,0.58937 -0.70945,0.58981 -1.13446,0.009 -0.59082,-0.80798 -1.34869,-0.775 -2.13411,0.0929 -0.35119,0.38806 -0.85204,0.70556 -1.11301,0.70556 -0.81165,0 -0.54733,0.37748 1.84051,2.62845 2.30506,2.17293 2.31453,2.18976 2.20486,3.92206 l -0.11014,1.73976 -1.33814,-0.0416 c -0.82303,-0.0256 -1.50978,-0.27632 -1.78402,-0.65136 -0.41331,-0.56525 -0.56392,-0.53011 -2.06245,0.48124 -1.41328,0.95381 -1.80582,1.52373 -3.12141,4.53192 -1.68404,3.850671 -2.09743,4.587608 -3.72146,6.634122 -0.62386,0.78614 -1.18913,1.81802 -1.25617,2.29306 -0.11295,0.80023 -0.25153,0.85677 -1.88579,0.76939 -0.97014,-0.0519 -2.51795,-0.40906 -3.43959,-0.79375 -4.16725,-1.73943 -5.2414,-2.2733 -5.78713,-2.87633 -0.32121,-0.35493 -0.86474,-0.64533 -1.20784,-0.64533 -0.34309,0 -1.09547,-0.396877 -1.67194,-0.881944 -0.57648,-0.485067 -1.2039,-0.881934 -1.39428,-0.881934 -0.72144,0 -4.1625,-1.709554 -4.71014,-2.340034 -1.09882,-1.26506 -1.4194,-2.19688 -1.01547,-2.95163 0.51372,-0.9599 1.76566,-0.87745 2.77105,0.18249 0.45693,0.48171 1.12182,0.87584 1.47753,0.87584 0.35572,0 1.16819,0.47625 1.80549,1.05834 0.6373,0.58208 1.36543,1.05833 1.61808,1.05833 0.25264,0 1.56267,0.55563 2.91118,1.234717 1.34851,0.679097 2.66421,1.234714 2.92378,1.234714 0.25958,0 1.29464,0.396877 2.30013,0.881944 1.00551,0.485067 1.97438,0.881937 2.15305,0.881937 0.55325,0 2.34226,-2.542068 3.35167,-4.762482 2.45975,-5.41081 4.14643,-7.93749 5.90609,-8.84745 1.28168,-0.66278 1.26619,-1.01258 -0.0693,-1.56578 -0.59043,-0.24456 -2.12808,-1.23297 -3.41702,-2.19646 -1.28893,-0.9635 -2.8557,-1.99606 -3.48172,-2.29459 -0.62602,-0.29853 -1.87235,-1.54262 -2.76962,-2.76464 -1.48538,-2.02298 -1.66789,-2.49455 -2.03901,-5.26828 -0.31349,-2.34297 -0.31048,-3.20194 0.013,-3.71996 0.54631,-0.87477 0.53098,-1.38227 -0.0624,-2.06645 -0.26566,-0.30632 -1.24485,-2.30319 -2.17597,-4.43749 -2.79402,-6.40443 -5.03006,-10.966331 -5.61189,-11.449206 -0.30169,-0.250384 -0.54854,-0.668214 -0.54854,-0.928511 0,-0.405211 -1.57457,-2.075278 -5.79184,-6.14312 -1.92841,-1.86007 -2.25331,-2.355754 -2.89041,-4.409722 -0.3611,-1.164166 -1.08111,-2.753638 -1.60002,-3.532155 -2.29787,-3.4475 -8.1819,-7.919317 -12.29551,-9.34449 -1.26118,-0.43694 -2.48947,-0.950891 -2.72953,-1.142115 -0.7398,-0.589276 -1.4489,-0.01884 -1.85602,1.493072 -0.52685,1.956573 -1.79467,2.691243 -4.8129,2.788955 -2.11823,0.06857 -2.62554,-0.06591 -5.37784,-1.425557 -3.64708,-1.801675 -7.80835,-4.510108 -9.74176,-6.340594 -4.27867,-4.050891 -6.09879,-5.948405 -6.99024,-7.28745 -0.54616,-0.820385 -1.14025,-1.491608 -1.3202,-1.491608 -0.17995,0 -0.75994,0.485701 -1.28887,1.079334 -0.65953,0.740205 -1.18089,1.022015 -1.65932,0.896902 -0.38369,-0.100337 -1.65872,0.263197 -2.83339,0.807854 -1.17467,0.544657 -2.74458,1.266158 -3.4887,1.60334 -1.47815,0.669787 -3.23204,0.738388 -9.18922,0.35942 -4.16484,-0.26495 -6.30545,0.104391 -6.75444,1.165402 -0.14293,0.337774 -0.29513,2.281011 -0.33822,4.318303 -0.0431,2.037291 -0.19041,4.339166 -0.32739,5.115277 -0.37799,2.141686 -3.44089,10.474882 -4.96647,13.512245 -0.4861,0.967814 -0.88374,2.133484 -0.88365,2.590377 2.6e-4,1.19351 1.32428,4.520039 2.32215,5.834256 0.46897,0.617643 0.85268,1.298656 0.85268,1.51336 0,0.517421 1.18636,2.821961 2.28974,4.447881 0.48689,0.71748 0.88526,1.64748 0.88526,2.06666 0,0.41919 0.13408,0.91298 0.29796,1.0973 0.16389,0.18433 0.66202,1.36702 1.10697,2.6282 0.44495,1.26118 1.16637,3.16618 1.60315,4.23333 1.10947,2.71067 2.97156,10.02211 3.14624,12.35366 0.0512,0.68263 0.33361,1.71451 0.6277,2.29305 0.29408,0.57855 0.64297,1.84565 0.77531,2.81579 0.13234,0.97014 0.54079,2.71639 0.90766,3.88055 0.36688,1.16417 0.82445,3.94229 1.01685,6.17361 0.19239,2.23132 0.42127,4.625491 0.50862,5.320365 0.12268,0.975977 0.004,1.360027 -0.52097,1.687967 -0.57925,0.36175 -0.8248,0.27924 -1.66038,-0.55788 -0.83812,-0.839677 -1.04714,-1.469334 -1.43859,-4.333782 -0.2519,-1.84326 -0.84683,-5.01826 -1.32208,-7.05555 -0.47524,-2.0373 -0.99579,-4.41855 -1.15676,-5.29167 -0.16097,-0.87313 -0.46897,-2.54 -0.68444,-3.70417 -0.21547,-1.16416 -0.62837,-3.02948 -0.91756,-4.14514 -0.28919,-1.11566 -0.77021,-3.02066 -1.06894,-4.23333 -0.95265,-3.86717 -3.75215,-11.1363 -5.74019,-14.90486 -0.40943,-0.77611 -1.0031,-1.96673 -1.31927,-2.64583 -1.95959,-4.208993 -3.87109,-7.69399 -4.60338,-8.392751 -1.01609,-0.96957 -1.07395,-1.933324 -0.19177,-3.194459 1.09366,-1.563468 2.7096,-5.256032 4.65532,-10.63779 1.55211,-4.293059 1.87638,-5.613231 2.01737,-8.213199 0.13249,-2.443409 0.0329,-3.449599 -0.47134,-4.7625 -0.35162,-0.915518 -0.60926,-2.04501 -0.57252,-2.509985 0.0971,-1.228623 -0.48643,-1.73803 -2.71403,-2.369393 -1.09028,-0.309012 -2.29982,-0.759291 -2.68788,-1.000619 -0.38805,-0.241328 -1.57868,-0.719257 -2.64583,-1.062066 -1.06716,-0.342808 -2.25778,-0.815724 -2.64584,-1.050925 -0.87441,-0.529981 -3.34034,-1.1538087 -5.55407,-1.4050567 -2.06688,-0.234583 -5.07808,-1.7157971 -5.37225,-2.6426175 -0.19956,-0.6287675 -2.73665,-2.1475245 -3.58745,-2.1475245 -0.19596,0 -0.7205,-0.387678 -1.16564,-0.861505 -0.92873,-0.988589 -1.313,-3.69980194 -1.58767,-11.201688 -0.21411,-5.8481503 -0.82902,-10.3845223 -1.61874,-11.9420043 -1.38852,-2.73843 -2.47087,-9.94738 -1.85136,-12.330913 0.27497,-1.057927 0.46925,-1.234722 1.35683,-1.234722 h 1.03591 l 0.26163,2.998611 c 0.26259,3.009674 1.20036,7.318061 2.38037,10.936111 0.57566,1.765067 1.37956,7.711951 1.33527,9.8777783 -0.01,0.485069 0.0657,2.779983 0.16805,5.0998081 0.17501,3.96681296 0.23939,4.26371393 1.08156,4.9881179 0.49251,0.42364 1.66107,1.045623 2.5968,1.382187 0.95146,0.342223 2.24552,1.190202 2.93604,1.923941 1.13408,1.205064 1.47914,1.347766 4.23333,1.750716 1.68741,0.246873 3.69278,0.8007455 4.58612,1.2666552 2.12727,1.1094604 3.61254,1.7261021 6.35,2.6363275 1.26118,0.419354 3.51574,1.464409 5.01015,2.322343 l 2.7171,1.559885 2.66086,-0.285094 c 1.49433,-0.160105 4.40163,-0.135855 6.63152,0.05532 3.31801,0.284459 4.26057,0.248853 5.73453,-0.216616 2.64762,-0.836101 4.09179,-1.444526 5.55626,-2.340832 1.10254,-0.674797 1.32291,-1.005727 1.32291,-1.9865864 0,-1.5201681 0.5627,-2.9867283 1.14597,-2.9867283 0.45255,0 1.81531,-3.693319 2.17256,-5.88804094 0.16226,-0.99681197 -0.0102,-1.29947394 -1.50835,-2.64639696 -0.93036,-0.836475 -1.87787,-1.868992 -2.10559,-2.2944841 -0.22772,-0.425493 -0.45284,-2.250864 -0.50028,-4.056377 -0.0749,-2.8501723 -0.19186,-3.3989723 -0.88766,-4.1647013 -0.44078,-0.485069 -0.97198,-1.511208 -1.18045,-2.280313 -0.60043,-2.215208 -0.37119,-2.988754 2.14701,-7.244686 0.17221,-0.291042 0.40184,-0.814507 0.5103,-1.163256 0.10845,-0.348749 0.65287,-0.792942 1.20981,-0.987094 1.0042,-0.350068 1.01423,-0.38228 1.20675,-3.875951 0.135,-2.450116 0.37596,-3.800468 0.79123,-4.434258 0.7121,-1.086802 0.14087,-1.128839 12.52093,0.921413 2.1447,0.355184 5.24317,1.029131 8.11388,1.764856 0.6791,0.174043 2.16539,0.427478 3.30287,0.563192 1.55712,0.185783 2.35492,0.498556 3.22882,1.265851 0.63838,0.560507 1.6921,1.198488 2.34159,1.41774 2.92379,0.986998 6.47366,4.672308 8.43884,8.76084 1.02247,2.127246 1.4865,3.77021 2.7898,9.8777783 0.75935,3.558522 0.3731,9.607817 -0.78896,12.356231 -0.64999,1.537279 -3.93242,6.5481957 -5.13584,7.8402937 -0.49696,0.533577 -1.11761,0.970139 -1.37922,0.970139 -0.26161,0 -1.27948,0.459077 -2.26192,1.020173 -1.90276,1.086715 -1.92418,1.142813 -2.08303,5.457497 -0.0477,1.29607 2.06051,2.737859 6.19262,4.235054 3.53114,1.279444 4.88033,2.160567 8.29536,5.417474 3.9321,3.750042 5.408,5.659032 6.56996,8.497901 0.97038,2.370829 2.23423,4.242139 3.04127,4.503035 0.34417,0.111267 1.25981,1.023839 2.03475,2.027943 0.77494,1.004105 2.11261,2.698768 2.9726,3.76592 1.59312,1.976889 4.40591,7.303301 6.70667,12.700001 0.70311,1.64923 1.42899,3.27427 1.61305,3.61118 0.18407,0.33692 0.33467,0.82825 0.33467,1.09185 0,0.26361 0.3175,0.76661 0.70555,1.1178 0.38806,0.35119 0.70556,0.8542 0.70556,1.1178 0,0.2636 0.19316,0.78857 0.42924,1.16661 0.32406,0.51889 0.33486,1.04097 0.0441,2.1304 -0.29886,1.11966 -0.27353,1.82394 0.11298,3.14247 0.42114,1.43663 0.8031,1.91105 2.47029,3.06828 1.08467,0.75288 2.38848,1.7755 2.89736,2.27248 0.50887,0.49698 1.22509,1.0164 1.5916,1.15427 0.60852,0.2289 0.64778,0.11505 0.45227,-1.31137 -0.37156,-2.71086 1.43168,-4.12776 3.64386,-2.86316 1.17719,0.67294 2.09972,0.65385 2.88824,-0.0598 0.60973,-0.55179 0.68206,-0.54623 1.14735,0.0882 0.42017,0.5729 0.93222,0.67456 3.32705,0.66054 2.15391,-0.0126 2.98914,-0.16017 3.49432,-0.61736 0.85031,-0.76951 1.78407,-0.76366 2.64539,0.0166 1.0253,0.92878 5.96275,0.85901 22.1282,-0.3127 2.619377,-0.18986 6.349976,-0.39938 8.290247,-0.46561 6.400777,-0.21849 16.200457,-0.88028 17.815277,-1.20312 0.873127,-0.17455 3.485676,-0.34792 5.805662,-0.38526 2.319987,-0.0373 4.469498,-0.2024 4.776686,-0.36681 0.307188,-0.1644 2.695268,-0.39992 5.30684,-0.52337 2.611575,-0.12346 5.859565,-0.40154 7.21776,-0.61796 1.358194,-0.21642 3.263194,-0.42753 4.233333,-0.46915 12.137892,-0.52063 16.28682,-0.8338 17.462502,-1.31812 1.703715,-0.70185 5.555671,-0.99324 14.993056,-1.13421 11.467781,-0.17131 12.9186318,-0.31415 16.69202076,-1.6434 1.61353194,-0.5684 4.31228184,-1.42823 5.99722304,-1.91073 1.684944,-0.48251 3.5397825,-1.09551 4.1218662,-1.36223 0.582084,-0.26672 2.010835,-0.74472 3.175003,-1.06222 1.164166,-0.31751 2.538036,-0.80758 3.053042,-1.08904 0.515006,-0.28147 1.200002,-0.51176 1.522212,-0.51176 0.322209,0 2.088095,-0.80984 3.924191,-1.79966 2.453192,-1.32248 3.566823,-1.74231 4.200031,-1.58338 0.473925,0.11895 1.501359,0.0557 2.283174,-0.14063 0.781827,-0.19628 2.061881,-0.51764 2.844554,-0.71412 0.782672,-0.19648 1.695485,-0.49677 2.028472,-0.6673 0.332987,-0.17054 1.954812,-0.65556 3.604048,-1.07782 1.649237,-0.42226 3.792362,-1.12995 4.762501,-1.57266 0.970139,-0.4427 2.875139,-1.0118 4.233333,-1.26465 1.358195,-0.25286 3.061618,-0.83238 3.785342,-1.287815 0.723758,-0.455443 1.438134,-0.828477 1.5875,-0.828971 0.149401,-3.53e-4 1.462228,-0.793838 2.917437,-1.762993 1.455208,-0.969155 2.978432,-1.762502 3.384903,-1.762993 0.728521,-7.05e-4 1.895404,0.980909 1.918723,1.614382 0.0067,0.178749 0.310445,0.95626 0.675217,1.727803 1.131041,2.392237 0.07747,3.246827 -3.492112,2.832537 -1.77158,-0.20561 -2.326464,-0.11102 -4.095539,0.69817 -2.818095,1.28903 -6.893737,2.5932 -9.942725,3.1816 -2.517352,0.4858 -5.73458,1.68027 -5.73458,2.12909 0,0.12634 2.930067,0.12766 6.51122,0.003 5.540729,-0.19297 6.67124,-0.14402 7.584723,0.32836 0.885543,0.45793 1.073503,0.77103 1.073503,1.78835 0,0.96514 -0.187184,1.31852 -0.861131,1.62558 -0.707884,0.32253 -1.088107,0.25841 -2.13681,-0.36035 -1.054277,-0.62202 -1.838678,-0.75222 -4.518766,-0.75001 -3.984237,0.003 -9.062298,0.56021 -9.549378,1.0473 -0.198614,0.19862 -0.731837,0.36113 -1.184945,0.36113 -0.689998,0 -0.767468,0.10522 -0.477097,0.64779 0.308469,0.57641 -0.283633,5.51618 -0.84208,7.02513 -0.414585,1.12017 0.221615,1.49931 2.515729,1.49931 2.586708,0 3.955133,0.56497 5.032234,2.0776 0.859508,1.20709 0.939623,2.25094 0.218651,2.84929 -0.672958,0.5585 -2.405062,0.17318 -3.207561,-0.71356 -0.786201,-0.86874 -1.717957,-0.87374 -2.525783,-0.0135 -0.347134,0.3696 -1.027995,0.72679 -1.513064,0.79375 -0.804475,0.11104 -0.891046,0.29299 -0.985414,2.07172 l -0.103435,1.94999 3.102046,-0.2914 c 1.706139,-0.16027 3.963282,-0.53869 5.015865,-0.84093 2.010622,-0.57734 7.552938,-1.15578 11.138994,-1.16255 2.81993,-0.005 4.758938,0.26833 7.937501,1.1202 1.455209,0.39001 3.280834,0.85486 4.056945,1.033 0.776111,0.17815 2.316974,0.6331 3.424132,1.01099 2.43272,0.83035 9.45635,1.39768 14.887047,1.2025 5.645432,-0.2029 5.249404,0.15705 4.956563,-4.50502 -0.135996,-2.16492 -0.352002,-4.65059 -0.480025,-5.52371 -0.212019,-1.446 -0.180057,-10.06722 0.04837,-13.05278 l 0.09447,-1.23472 -6.173612,0.10826 c -3.791408,0.0665 -6.854225,0.2945 -7.9375,0.59093 -0.970139,0.26547 -2.716389,0.5952 -3.880556,0.73274 -1.164167,0.13753 -2.513542,0.40158 -2.998611,0.58678 -0.48507,0.18519 -1.307642,0.39314 -1.827954,0.46211 -0.520276,0.069 -1.687407,0.46314 -2.593587,0.87595 -2.9585,1.34775 -7.255334,0.79931 -7.506547,-0.95812 -0.09193,-0.64339 0.1397,-0.83306 1.411111,-1.15541 0.836648,-0.21212 2.711768,-0.7629 4.166976,-1.22397 2.493152,-0.78994 4.809632,-1.36052 7.231945,-1.78132 4.564628,-0.79297 8.468537,-1.31767 10.406945,-1.39874 1.261181,-0.0527 4.585265,-0.4347 7.38685,-0.8488 6.137417,-0.90717 5.516281,-0.90255 6.371485,-0.0474 0.889212,0.8892 0.933027,3.21667 0.134761,7.15623 -0.439385,2.16855 -0.528355,4.04422 -0.386539,8.14909 0.226025,6.54213 0.326073,6.92597 1.791335,6.87271 0.608472,-0.0221 2.058776,0.15279 3.222943,0.38868 1.164167,0.23588 2.434167,0.38399 2.822223,0.32914 2.532768,-0.35802 11.699768,-0.0575 12.347258,0.40477 0.43928,0.31363 1.92355,0.54069 7.85763,1.20202 2.57545,0.28703 5.35358,0.70902 6.17361,0.93775 0.82004,0.22874 2.60223,0.61728 3.96043,0.86343 4.04287,0.7327 5.11295,1.08661 9.89595,3.27305 2.51237,1.14846 4.88544,2.19021 5.27349,2.31499 1.13496,0.36494 4.14645,3.3494 3.93521,3.89987 -0.104,0.27103 0.0369,0.68033 0.31305,0.90954 0.77925,0.64671 1.24047,2.7313 0.81224,3.67112 -0.29736,0.65264 -0.16789,1.19589 0.68675,2.881878 1.97079,3.887824 2.23485,4.356614 2.57073,4.564204 0.18467,0.11414 0.57986,0.79167 0.87817,1.50563 0.2983,0.71395 1.169,2.04127 1.93491,2.94958 0.76592,0.90832 1.39256,1.76532 1.39256,1.90446 0,0.13913 0.59379,1.14253 1.31953,2.22976 1.51447,2.26882 2.76002,4.40784 3.30806,5.68096 0.85277,1.98104 1.41761,3.19811 3.43818,7.40833 1.16399,2.42535 2.52335,5.49813 3.0208,6.82841 0.94266,2.52086 2.84116,9.96275 3.1635,12.40039 0.10244,0.77479 0.427,2.85094 0.72129,4.61367 0.50888,3.04842 0.45893,3.93247 -0.33207,5.87906 -0.31087,0.76497 -1.52548,0.79724 -2.56636,0.0682 z m -268.11894,-38.83024 c 0.523937,-0.26646 1.179284,-0.48447 1.456331,-0.48447 0.920627,0 3.024695,-3.5555 3.444652,-5.82084 0.440117,-2.37401 0.20192,-5.38146 -0.556177,-7.02235 -0.277367,-0.60034 -0.829154,-1.97508 -1.226194,-3.054977 -0.940694,-2.558545 -2.202765,-3.724645 -4.798042,-4.433175 -3.31177,-0.90414 -3.52259,-0.86846 -3.40277,0.5758 0.0563,0.6791 0.25883,2.034924 0.44999,3.012938 0.37754,1.931624 0.76385,5.295924 1.39589,12.156494 0.56168,6.09684 0.55909,6.08683 1.5017,5.79618 0.4301,-0.13262 1.21067,-0.45914 1.73462,-0.7256 z M 13.216571,68.556428 c 0.995895,-0.16873 1.322917,-0.39294 1.322917,-0.90701 0,-0.48382 -0.179963,-0.63035 -0.617361,-0.50269 -0.339549,0.0991 -1.532214,0.43916 -2.650369,0.75568 -2.1073084,0.59652 -2.4942271,1.46768 -0.482858,1.08716 0.607614,-0.11495 1.700066,-0.30986 2.427671,-0.43314 z m 18.19367,-5.89187 c 0.07938,-0.40926 -0.05408,-0.52245 -0.440972,-0.37399 -0.652146,0.25026 -0.762459,1.32368 -0.113807,1.10771 0.242535,-0.0807 0.492196,-0.41093 0.554779,-0.73372 z M -196.31041,23.089826 c 0.16619,-0.580196 0.44728,-1.542425 0.62465,-2.138285 0.41635,-1.398696 0.41442,-4.449727 -0.004,-5.548975 -0.26508,-0.697198 -0.64419,-0.894715 -2.02847,-1.056816 -5.81429,-0.680865 -7.79545,-1.663185 -14.21461,-7.0480222 -1.33567,-1.1204575 -2.49772,-1.9142075 -2.58232,-1.7638885 -1.32126,2.3475242 0.32652,5.5306397 5.55075,10.7227237 2.12401,2.110945 4.05652,3.838081 4.29446,3.838081 0.23794,0 0.89964,0.392973 1.47044,0.873273 1.38692,1.167017 5.41081,3.315794 6.06458,3.238511 0.28703,-0.03394 0.65784,-0.536403 0.82403,-1.116602 z m -5.40286,-14.8132358 c 0,-0.291041 -0.22875,-0.5291657 -0.50834,-0.5291657 -0.68203,0 -1.01983,0.5998737 -0.464,0.8239614 0.77013,0.310486 0.97234,0.249181 0.97234,-0.2947957 z m 6.73445,-3.6449839 c -0.19026,-0.355508 -0.59272,-0.851196 -0.89435,-1.101531 -0.30164,-0.250334 -0.54843,-0.661659 -0.54843,-0.914058 0,-0.252398 -0.39688,-0.930564 -0.88195,-1.507034 -0.48507,-0.57647397 -0.88194,-1.19330991 -0.88194,-1.37075391 0,-0.17744 -0.23308,-0.63077297 -0.51795,-1.00740589 -0.49823,-0.658728 -0.51837,-0.649728 -0.52917,0.2364709 -0.0138,1.13026796 3.32806,6.3106859 4.07094,6.3106859 0.40332,0 0.44671,-0.153356 0.18285,-0.646374 z m 7.01219,-1.324652 c -0.34259,-0.901044 -0.43292,-0.952137 -0.73358,-0.414899 -0.22926,0.409664 -0.21022,0.860584 0.0575,1.360791 0.59731,1.116094 1.16049,0.328168 0.67609,-0.945892 z m -3.18937,0.06216 c 0.25059,-0.301943 0.28083,-0.579512 0.0769,-0.705566 -0.18494,-0.114297 -0.84641,-1.120616 -1.46995,-2.23626894 -1.77399,-3.17406496 -5.4083,-8.50091706 -5.95149,-8.72315706 -0.75251,-0.307886 -0.86883,-0.01404 -1.14692,2.897375 -0.28742,3.0089931 -0.1237,3.6744022 0.63689,2.5885061 0.28179,-0.402304 0.72281,-0.731463 0.98007,-0.731463 0.42044,0 1.88601,2.0697471 4.04157,5.7076929 1.01724,1.716804 2.04446,2.152964 2.83296,1.202881 z m -11.9129,-5.5278549 c -0.0632,-1.439594 -0.25211,-2.7601011 -0.41984,-2.9344651 -0.17877,-0.18584 -0.67988,-0.07137 -1.21099,0.276624 -0.73754,0.483252 -0.83932,0.7183081 -0.54728,1.2639711 0.19731,0.368677 0.35874,1.006143 0.35874,1.416589 0,1.059886 1.02066,2.89924793 1.51698,2.73380893 0.28547,-0.09515 0.38098,-0.96586994 0.30239,-2.75652793 z m -4.284,2.05686399 c 0.003,-0.242535 0.0976,-0.78697997 0.21104,-1.20987589 0.16957,-0.63227 -0.0507,-0.8999711 -1.23954,-1.5064781 -1.40647,-0.717521 -1.91932,-1.8000231 -1.09435,-2.3098861 0.19328,-0.11945 0.31234,-0.724133 0.26459,-1.343734 l -0.0868,-1.126553 2.413,-0.105036 c 1.32716,-0.05777 2.61176,0.05992 2.85468,0.261521 0.49203,0.408344 0.90593,0.148809 0.90593,-0.568061 0,-0.258702 -0.30813,-0.470369 -0.68473,-0.470369 -0.37661,0 -0.76982,-0.137664 -0.87381,-0.305922 -0.10399,-0.168257 -1.31587,-0.668238 -2.69307,-1.111066 -3.30069,-1.0613113 -4.56247,-2.7960573 -2.34434,-3.2230773 1.05589,-0.203271 0.78962,-0.782701 -0.75742,-1.648171 -0.98111,-0.548876 -1.46608,-1.061035 -1.46608,-1.548303 0,-0.674348 0.15308,-0.714241 2.07264,-0.54018 2.07706,0.188341 4.26799,0.981742 5.42389,1.96415 0.89207,0.758169 0.79386,2.04808 -0.17639,2.316716 l -0.79375,0.21977 0.88195,0.694965 c 0.48507,0.382229 1.04012,0.645997 1.23345,0.586152 0.54346,-0.168236 0.7779,-2.316675 0.85417,-7.827469 0.0697,-5.038093 0.0667,-5.058822 -0.8116,-5.63433 -0.4979,-0.326242 -0.92903,-0.98813 -0.9906,-1.520849 -0.0935,-0.808662 -0.31033,-0.970146 -1.52014,-1.131976 -0.77611,-0.103815 -1.5957,-0.303061 -1.82131,-0.442768 -0.41139,-0.254755 -3.80437,-0.665127 -6.11619,-0.739736 l -1.23473,-0.03985 -0.10282,2.932928 c -0.0662,1.889167 0.10123,3.70957 0.47056,5.115277 0.31536,1.200291 0.71361,3.531725 0.88498,5.180961 0.17137,1.649236 0.47986,4.268612 0.68553,5.8208343 0.20568,1.552222 0.42353,3.695347 0.48413,4.7625 0.0606,1.0671521 0.38089,2.4620741 0.71178,3.0998262 0.54525,1.05095289 0.71172,1.13888989 1.77748,0.93895289 0.83537,-0.15671397 1.31606,-0.06221 1.65991,0.326337 0.59146,0.66835197 1.01154,0.72315194 1.01799,0.1328 z m 0.17158,-17.92401839 c -0.58209,-0.370995 -1.41553,-0.831712 -1.85209,-1.023817 -0.43656,-0.192105 -0.79375,-0.499653 -0.79375,-0.683437 0,-0.183783 -0.56125,-0.519377 -1.24722,-0.745768 -1.48589,-0.490386 -2.60196,-1.932252 -1.97836,-2.555854 1.00183,-1.001825 7.8879,2.468326 8.3208,4.193166 0.41686,1.660885 -0.59474,1.997773 -2.44938,0.81571 z m 1.23472,-3.872561 c -1.87989,-0.525286 -7.05717,-3.221863 -7.55764,-3.936386 -1.31544,-1.878055 0.57725,-1.772038 5.47598,0.306737 3.57844,1.518507 4.87575,2.478726 4.39653,3.254131 -0.29311,0.47426 -1.34868,0.645495 -2.31487,0.375518 z m 15.52222,20.2754264 c 0,-0.599729 -2.02629,-4.4121311 -2.98841,-5.6225971 -0.61688,-0.776111 -1.77675,-2.383398 -2.57748,-3.5717473 -1.39257,-2.066665 -2.2334,-2.798866 -2.6899,-2.342371 -0.64908,0.649086 0.14136,2.048782 4.45545,7.8895573 0.91724,1.2418421 1.91684,2.6150821 2.22133,3.0516441 0.49174,0.7050301 1.57901,1.115089 1.57901,0.595514 z m 1.36547,-5.3417711 c 0.19225,-0.105795 -2.89516,-4.3241313 -4.159,-5.6824613 -0.59786,-0.642563 -1.08702,-1.289505 -1.08702,-1.437643 0,-0.401204 -3.16209,-4.405192 -3.7368,-4.731723 -0.99249,-0.563895 -0.51151,1.443178 0.73818,3.080367 0.6791,0.889663 1.23473,1.706167 1.23473,1.814445 0,0.108282 0.39687,0.717204 0.88194,1.353164 0.48507,0.635959 0.88195,1.315139 0.88195,1.509286 0,0.194152 0.33375,0.655042 0.74167,1.024202 0.40792,0.3691653 0.98269,1.1478303 1.27726,1.7303723 0.96124,1.900907 1.48261,2.309445 2.33925,1.833008 0.4164,-0.231584 0.81593,-0.453443 0.88784,-0.493017 z m -26.99067,0.07195 c -0.11169,-0.291041 -0.26545,-0.529166 -0.34171,-0.529166 -0.0763,0 -0.13865,0.238125 -0.13865,0.529166 0,0.291042 0.15377,0.529167 0.34171,0.529167 0.18794,0 0.25033,-0.238125 0.13865,-0.529167 z m -0.65155,-3.6159723 c -0.13936,-1.309688 -0.32758,-2.502902 -0.41825,-2.651588 -0.30149,-0.494368 -0.82167,0.123451 -0.82167,0.975893 0,0.462167 -0.15182,0.934132 -0.33737,1.048813 -0.37307,0.230568 -0.15747,1.005402 0.61615,2.2143823 0.92009,1.437869 1.22881,0.927961 0.96114,-1.5875003 z m 28.0035,-0.881944 c -0.71745,-1.373072 -4.08789,-6.05535 -4.86422,-6.757455 -1.34504,-1.216438 -0.81776,0.128358 1.28539,3.278342 1.92815,2.887878 3.10323,4.235137 3.71658,4.261126 0.15234,0.0065 0.0904,-0.345451 -0.13775,-0.782013 z m 2.85936,-0.600764 c 0,-0.964477 -3.37228,-6.719375 -3.93745,-6.719375 -0.16274,0 -0.29588,-0.531806 -0.29588,-1.181792 0,-1.110706 -1.72849,-4.097281 -2.38346,-4.118292 -0.14431,-0.0046 -0.8644,-0.148174 -1.6002,-0.318989 l -1.33783,-0.310571 0.7222,1.22404 c 0.72731,1.232701 4.73244,6.621102 5.52859,7.438012 0.2355,0.241646 0.92814,1.313208 1.53922,2.38125 1.01486,1.773798 1.76481,2.456142 1.76481,1.605717 z m -33.07292,-4.26848 c 1.35667,-0.376763 1.53194,-0.753043 1.10057,-2.362701 -0.40437,-1.508894 -1.96886,-0.524506 -2.58593,1.627085 -0.3559,1.240942 -0.34811,1.244797 1.48536,0.735616 z m 23.22953,-4.758686 c -0.59374,-0.676229 -1.3247,-1.703617 -1.62435,-2.283083 -0.62716,-1.212804 -1.23226,-1.379826 -1.23226,-0.340134 0,0.392391 0.67469,1.459519 1.49931,2.3714 0.82462,0.911878 1.65805,1.845211 1.85208,2.074076 0.26606,0.31382 0.38129,0.292107 0.46876,-0.08832 0.0638,-0.277438 -0.3698,-1.057712 -0.96354,-1.733941 z M 300.47066,150.05015 c -0.63048,-1.50896 -0.75487,-12.24843 -0.19572,-16.89951 0.70058,-5.82765 0.554,-20.52844 -0.21713,-21.77615 -0.10076,-0.16299 -0.39547,-1.59858 -0.65497,-3.19019 -0.43893,-2.69214 -0.42697,-2.93986 0.17187,-3.55402 0.35401,-0.36309 0.8139,-0.55496 1.022,-0.42636 1.09467,0.67655 2.41455,5.61042 3.0747,11.49348 0.38735,3.45232 0.21404,16.83806 -0.24669,19.05 -0.22225,1.06715 -0.4233,4.97188 -0.44673,8.67717 -0.0324,5.14163 -0.15726,6.87501 -0.52676,7.32014 -0.76038,0.91596 -1.40159,0.69109 -1.98057,-0.69456 z m -417.16448,-30.8414 c -3.68983,-0.28699 -6.59069,-1.19073 -8.26048,-2.5735 -2.07913,-1.72174 -5.3991,-4.29159 -6.0639,-4.69381 -0.5377,-0.32533 -0.59246,-0.53263 -0.27956,-1.05834 0.28174,-0.47336 0.88905,-0.68314 2.20089,-0.76025 1.7045,-0.10019 1.9008,-0.0204 3.31506,1.3467 0.8268,0.79925 1.74139,1.65998 2.03244,1.91272 2.04624,1.777 6.88949,2.79988 10.88295,2.29844 2.91392,-0.36588 3.30826,-0.27004 3.96905,0.96467 0.44917,0.83926 0.42052,0.95491 -0.36592,1.47709 -0.95687,0.63534 -3.18701,1.47075 -3.72636,1.3959 -0.19403,-0.0269 -1.8609,-0.16626 -3.70417,-0.30962 z m -22.57778,-6.18672 c -2.89249,-0.44707 -6.50192,-1.39461 -7.23194,-1.89852 -0.40198,-0.27747 -2.7751,-1.11129 -5.11528,-1.7973 -0.87313,-0.25595 -1.90064,-0.67339 -2.28336,-0.92764 -0.38272,-0.25426 -0.94944,-0.46228 -1.25938,-0.46228 -0.30993,0 -1.08831,-0.46854 -1.72972,-1.04119 -1.21769,-1.08715 -1.26841,-1.94734 -0.14035,-2.38022 0.59252,-0.22737 4.97898,1.03635 8.41142,2.42329 4.89535,1.97807 7.70104,2.762 9.88515,2.762 2.57735,0 4.5799,0.92473 4.82944,2.23011 0.34759,1.81829 -0.0897,1.90725 -5.36598,1.09175 z m 20.6963,-1.0876 c -0.97264,-0.97263 0.83653,-3.17367 4.84113,-5.88973 2.27738,-1.5446 4.80146,-0.93331 4.80146,1.16284 0,1.25174 -0.73438,1.88183 -1.86311,1.59853 -0.65713,-0.16492 -1.16576,0.0384 -2.06222,0.82436 -2.29366,2.01097 -4.94274,3.07852 -5.71726,2.304 z m 413.65816,-9.55931 c -2.02466,-2.942224 -2.89729,-4.325288 -3.6081,-5.718542 -0.38181,-0.74847 -1.1647,-1.69585 -1.73969,-2.10529 -0.57499,-0.40943 -1.14547,-1.05954 -1.26771,-1.44468 -0.12224,-0.38515 -0.71857,-0.95691 -1.32517,-1.2706 -0.6066,-0.31368 -2.00526,-1.30412 -3.10812,-2.20099 -1.10289,-0.89686 -3.65185,-2.63042 -5.66437,-3.85235 -2.01249,-1.22193 -4.76977,-3.25053 -6.12726,-4.50799 -1.35749,-1.25746 -2.90474,-2.52396 -3.43831,-2.81445 -1.12438,-0.61212 -1.16526,-0.76804 -0.41787,-1.59391 0.5074,-0.56067 0.45667,-0.70627 -0.6242,-1.79166 -1.68406,-1.69108 -2.97752,-3.51207 -3.21967,-4.5328 -0.11507,-0.48506 -1.01127,-1.51694 -1.99153,-2.29305 -1.8953,-1.50056 -7.22539,-4.38099 -8.14007,-4.39897 -0.30074,-0.006 -0.71458,-0.17854 -0.91965,-0.38362 -0.4662,-0.46618 -4.00837,-1.4109 -6.11826,-1.63179 -0.87313,-0.0914 -3.41313,0.10586 -5.64445,0.43836 -4.8672,0.72529 -12.13235,0.96006 -13.50275,0.43633 -0.78369,-0.29951 -1.10613,-0.25929 -1.6153,0.2015 -1.01652,0.91997 -2.30071,0.69609 -3.78015,-0.65903 -0.7414,-0.6791 -1.62232,-1.23472 -1.95756,-1.23472 -0.86477,0 -2.61091,-1.56149 -3.11965,-2.78974 -0.76567,-1.8484 -1.31382,-1.60537 -2.15915,0.95726 -1.95223,5.91838 -5.31964,11.42873 -8.26128,13.51856 -1.57338,1.11781 -7.95182,3.48336 -9.39246,3.48336 -0.51057,0 -1.46364,0.22051 -2.11793,0.49002 -1.11827,0.46065 -1.85745,0.58573 -6.62884,1.12175 -2.14761,0.24126 -3.37679,0.63408 -3.71955,1.18869 -0.38467,0.62244 -2.15533,0.42076 -2.82755,-0.32207 -0.52391,-0.5789 -0.59002,-1.05372 -0.39133,-2.80996 0.13151,-1.16234 0.12929,-4.33171 -0.005,-7.04303 -0.24183,-4.88541 -0.25227,-4.9331 -1.16562,-5.31141 -0.50687,-0.20996 -1.35586,-1.06821 -1.88669,-1.90723 -1.13224,-1.78969 -2.4451,-2.42568 -6.26096,-3.03301 -5.76036,-0.9168 -8.46666,-0.87547 -8.46666,0.12933 0,0.56232 -1.07128,0.90476 -2.85161,0.91155 -0.69529,0.003 -1.37605,0.11673 -1.51282,0.25351 -0.13681,0.13678 -0.83795,0.28088 -1.55811,0.32022 -1.60835,0.0879 -3.16417,0.41884 -3.95277,0.84088 -0.32668,0.17483 -0.89743,0.24956 -1.26835,0.16608 -0.85686,-0.19286 -13.55061,-0.91804 -18.66607,-1.06639 -2.1343,-0.0619 -5.38868,-0.28102 -7.23194,-0.48694 -12.88941,-1.44 -18.72415,-1.59259 -29.262888,-0.76526 -4.434311,0.3481 -5.166748,0.33098 -5.62931,-0.13159 -0.332846,-0.33286 -0.405483,-0.64771 -0.194099,-0.84172 1.054735,-0.96821 7.877427,-2.08263 14.447797,-2.35992 1.93975,-0.0819 3.69645,-0.21393 3.90377,-0.29349 0.2073,-0.0796 2.50963,-0.008 5.11623,0.1582 4.40472,0.28146 5.61446,0.38785 9.85461,0.86669 0.87312,0.0986 6.90562,0.48802 13.40555,0.86537 6.49994,0.37735 12.37369,0.78328 13.05278,0.90206 1.3806,0.24148 8.18783,-1.22635 10.23056,-2.20601 0.9931,-0.47628 2.09765,-0.57335 5.64444,-0.49606 2.42535,0.0529 4.82385,0.14773 5.32998,0.21082 1.72396,0.21492 1.86461,-0.13261 1.37189,-3.389375 -0.5393,-3.564682 -0.75012,-11.230362 -0.36245,-13.179759 1.85819,-9.343696 5.7658,-14.232448 14.98262,-18.744419 3.49225,-1.709582 3.51998,-1.716317 6.70277,-1.626066 5.11345,0.144992 10.01688,0.155215 13.31987,0.02776 2.07913,-0.08022 3.20672,0.01976 3.49772,0.310166 0.23619,0.235705 0.50243,1.308749 0.59165,2.384537 0.15864,1.912917 0.20588,1.987137 2.14672,3.371335 1.09149,0.778446 2.90227,1.752536 4.02396,2.164644 2.67825,0.984 3.50393,2.014859 5.70974,7.128848 0.92361,2.141308 1.12903,4.142317 0.57493,5.599808 -0.41212,1.083902 -2.46462,1.69734 -4.766,1.424431 -1.56242,-0.185282 -1.70966,-0.143337 -1.49158,0.424932 0.30893,0.805127 0.91444,8.064097 0.94192,11.292348 0.0116,1.3582 0.29189,3.2632 0.62297,4.23334 0.56907,1.66761 0.67162,1.76589 1.87928,1.80059 1.97905,0.0569 4.95833,0.50087 5.57484,0.83083 1.06303,0.5689 7.245,0.63597 11.40365,0.12373 6.15206,-0.75778 13.353,-0.18163 15.18889,1.21527 0.23205,0.17658 0.97754,0.52875 1.65664,0.78262 2.52099,0.94239 5.15779,2.32017 6.58576,3.44119 0.80878,0.63491 1.72791,1.15438 2.04252,1.15438 1.44522,0 3.37149,1.44509 4.25785,3.19419 0.51339,1.01317 1.24943,1.90558 1.71887,2.08407 0.90953,0.3458 1.35114,1.15536 1.05343,1.9312 -0.18193,0.47404 2.17054,4.90422 3.34172,6.29317 0.58752,0.69678 6.22964,4.48903 6.67876,4.48903 0.67783,0 4.7124,3.28356 6.29038,5.11944 0.94654,1.10123 2.27662,2.29741 2.95571,2.65815 1.62349,0.86243 3.61361,2.87445 5.2178,5.27519 1.15866,1.733948 1.29716,2.184095 1.30256,4.233312 l 0.006,2.29306 -1.05834,0.0833 c -0.90427,0.0711 -1.22569,-0.15994 -2.20807,-1.5875 z M 193.92704,72.805398 c 2.89295,-0.63862 4.05987,-0.98518 7.86267,-2.33512 3.07623,-1.09202 3.39154,-1.29899 5.15705,-3.38499 1.03431,-1.22202 2.15897,-2.80952 2.49922,-3.52778 0.34029,-0.71825 0.83725,-1.75505 1.10437,-2.30399 1.6262,-3.34207 2.59281,-10.747029 1.83692,-14.072185 -0.47661,-2.096417 -0.4353,-4.440548 0.0893,-5.072719 0.26081,-0.314268 0.87574,-0.48726 1.50838,-0.424349 0.86963,0.08648 1.12204,0.315997 1.35854,1.235371 0.4498,1.748346 0.98489,1.763822 0.98489,0.0285 0,-0.841403 0.24606,-1.881145 0.54684,-2.310539 0.49865,-0.711955 0.48535,-0.975202 -0.1512,-2.988913 -1.03777,-3.283098 -1.64543,-4.833818 -2.05437,-5.242743 -0.21177,-0.211783 -0.89549,-0.266725 -1.62235,-0.130366 -1.24764,0.234054 -1.25776,0.250687 -1.46675,2.405853 -0.11571,1.193595 -0.28105,2.884547 -0.36738,3.757672 -0.21664,2.190891 -1.17348,8.694084 -1.5312,10.406943 -0.37253,1.783659 -2.33824,5.703805 -3.47898,6.937955 -0.47823,0.51741 -1.17313,1.27081 -1.54418,1.67422 -0.37109,0.40341 -0.98969,1.32117 -1.37467,2.03946 -1.23963,2.31292 -3.57773,4.45317 -5.84363,5.34915 -1.15633,0.45724 -2.92375,1.23115 -3.92765,1.71979 -1.33777,0.65119 -2.37409,0.88338 -3.88055,0.86946 -3.19116,-0.0295 -3.26969,0.0249 -3.10625,2.15263 0.0775,1.00931 0.14729,2.36066 0.15498,3.00299 l 0.0141,1.16789 2.55764,-0.24347 c 1.4067,-0.1339 3.51014,-0.45373 4.6743,-0.71072 z m -3.41567,-18.10579 c 0.20804,-0.59672 0.23968,-1.54803 0.0757,-2.27494 -0.37874,-1.679264 -1.7786,-5.127494 -2.5412,-6.259596 -0.61298,-0.910051 -2.40915,-6.007788 -2.40915,-6.837556 0,-0.237942 -0.39624,-0.860192 -0.88057,-1.382773 -0.48433,-0.52258 -1.26234,-1.512005 -1.729,-2.198719 -1.14575,-1.686126 -2.14097,-2.37496 -2.59831,-1.798369 -0.61807,0.779265 -1.19853,3.052385 -0.9663,3.784106 0.12478,0.393174 0.26303,1.501369 0.3072,2.462649 0.0441,0.961285 0.16246,1.829954 0.26286,1.930376 0.10043,0.100421 0.68841,-0.0083 1.30662,-0.241688 0.98731,-0.372668 1.20307,-0.339739 1.77376,0.270718 0.58607,0.626882 3.50675,6.936954 4.64877,10.043603 0.59154,1.609149 1.73503,3.527779 2.10255,3.527779 0.15925,0 0.45039,-0.46152 0.64703,-1.02559 z m 13.74588,-3.648716 c 0.19936,-0.242535 0.41723,-0.758472 0.48419,-1.146528 0.0992,-0.575218 -0.0729,-0.705555 -0.93179,-0.705555 -0.73582,0 -1.09054,0.192376 -1.17637,0.637966 -0.27302,1.41767 0.79833,2.21863 1.62397,1.214117 z m -21.44271,-3.242373 c 0,-0.561845 -0.64008,-1.085847 -0.94901,-0.776916 -0.2902,0.290209 0.16281,1.285261 0.58515,1.285261 0.20013,0 0.36386,-0.228755 0.36386,-0.508345 z m 11.60829,-0.764078 c 0.71399,-0.907673 0.59687,-1.865464 -0.29556,-2.417008 -0.17882,-0.110525 -0.51502,-0.794053 -0.74711,-1.518955 -0.23209,-0.724902 -0.68827,-1.635502 -1.01374,-2.023558 -0.32547,-0.388055 -1.04627,-1.57868 -1.60175,-2.645833 -0.55552,-1.067153 -1.43856,-2.575277 -1.96236,-3.351388 -1.27145,-1.883936 -2.45999,-4.257389 -2.45999,-4.912424 0,-0.634806 1.27684,-1.388198 1.92874,-1.138043 0.25435,0.09761 1.14339,1.419525 1.97559,2.937584 0.8322,1.518055 1.60383,2.83948 1.71478,2.936494 0.31814,0.278176 0.98665,1.420572 2.13247,3.644039 0.58286,1.131093 1.35848,2.480468 1.72357,2.998611 0.36505,0.518138 1.02221,1.931701 1.46032,3.141245 0.69039,1.905978 1.76453,3.561521 1.76453,2.719585 0,-1.176069 -3.94925,-11.527101 -4.90767,-12.863081 -0.35066,-0.488823 -0.76183,-1.280273 -0.9137,-1.758777 -0.15187,-0.478504 -0.71123,-1.427931 -1.24301,-2.109844 -0.53178,-0.681908 -1.06839,-1.678527 -1.19249,-2.214707 -0.18842,-0.814175 -0.36344,-0.940286 -1.06165,-0.765044 -0.47795,0.119955 -1.31283,-0.03672 -1.94914,-0.365774 -1.10038,-0.569016 -1.13312,-0.56092 -2.86021,0.706892 -0.96093,0.705376 -1.74424,1.388043 -1.74075,1.51704 0.004,0.128997 0.45709,1.028287 1.00796,1.998426 4.4686,7.869745 5.39076,9.599495 7.758,14.552082 0.48687,1.018646 1.08201,1.852083 1.3225,1.852083 0.24052,0 0.76281,-0.41384 1.16067,-0.919645 z m 7.7233,-3.715269 c 0.0627,-0.522259 -0.82815,-2.845304 -2.20487,-5.749533 -1.27052,-2.680257 -2.31006,-5.097063 -2.31006,-5.370674 0,-0.273614 -0.22627,-0.84908 -0.50281,-1.278816 -1.05015,-1.631809 -1.98053,-5.108603 -1.62048,-6.055599 0.43596,-1.146648 0.82924,-1.133909 1.76618,0.0572 0.61902,0.786976 0.81022,0.865152 1.07855,0.440972 0.43419,-0.686499 0.42283,-0.737009 -0.38379,-1.705388 -0.68323,-0.820233 -0.74045,-0.827436 -2.85193,-0.359008 -2.55196,0.566149 -4.09988,1.431026 -4.51234,2.521183 -0.37945,1.002901 -0.31627,1.059692 0.73444,0.660206 0.92753,-0.352633 2.05885,0.05314 2.05885,0.738427 0,0.217615 0.23086,0.650752 0.51301,0.962526 1.21267,1.340009 6.18977,12.171108 6.18977,13.470148 0,0.180788 0.23587,0.893216 0.52416,1.583168 0.58434,1.398513 1.35844,1.441859 1.52132,0.08518 z m 19.67498,-7.120074 c 0.28645,-0.74651 -1.86567,-5.155332 -3.06208,-6.272946 -1.39411,-1.302297 -1.98462,-1.319128 -1.06697,-0.03041 0.38837,0.545412 0.81964,1.458224 0.95839,2.028472 0.814,3.345698 2.60209,5.756518 3.17066,4.274884 z m -19.07614,-0.952825 c -0.46302,-2.404413 -1.82383,-5.561932 -2.77132,-6.43038 -0.58212,-0.533576 -1.10095,-0.970138 -1.15291,-0.970138 -0.14048,0 0.57217,2.131317 1.13838,3.404704 0.27188,0.611406 0.49431,1.229758 0.49431,1.374118 0,0.413992 1.9129,3.333732 2.18461,3.334434 0.13437,3.5e-4 0.18249,-0.320385 0.10693,-0.712738 z m 4.05846,-0.990751 c 0,-0.16116 0.3151,-2.026472 0.70019,-4.145139 0.38513,-2.11867 0.70263,-4.307204 0.70556,-4.863412 0.005,-0.861765 -0.10665,-0.981992 -0.7523,-0.813156 -0.7535,0.197044 -3.22319,-0.833021 -3.64896,-1.521908 -0.1216,-0.1968 -0.46972,-0.357819 -0.77357,-0.357819 -0.7093,0 -0.43893,1.513375 0.71995,4.030271 0.45342,0.984807 1.18879,3.179625 1.63414,4.877368 0.44534,1.697743 0.9459,3.086805 1.11234,3.086805 0.16648,0 0.30265,-0.131854 0.30265,-0.29301 z m 7.58472,-6.05699 c 0.11991,-0.194027 0.0629,-0.352777 -0.12672,-0.352777 -0.18962,0 -0.59584,-0.09636 -0.90276,-0.214133 -0.36618,-0.140515 -0.55802,-0.01923 -0.55802,0.352778 0,0.622889 1.23215,0.78909 1.5875,0.214132 z m -12.17083,-0.705555 c 0,-0.194028 -0.07,-0.352778 -0.15558,-0.352778 -0.0855,0 -0.25368,0.15875 -0.37359,0.352778 -0.11991,0.194028 -0.0499,0.352778 0.15557,0.352778 0.20546,0 0.3736,-0.15875 0.3736,-0.352778 z m -374.57948,64.840551 c -0.23283,-0.23283 -0.42333,-0.77201 -0.42333,-1.19818 0,-0.44459 -0.5289,-1.23923 -1.24094,-1.8644 -1.44864,-1.27192 -3.99974,-5.58953 -5.96534,-10.09603 -0.76167,-1.74625 -1.73598,-3.81 -2.16513,-4.58611 -0.42917,-0.77611 -0.88835,-2.02638 -1.02041,-2.77837 -0.23879,-1.35968 -0.2346,-1.36588 0.7536,-1.11786 0.54654,0.13718 1.00616,0.2762 1.02137,0.30893 0.29935,0.64425 1.8951,3.07911 2.39956,3.66133 0.3715,0.42877 1.28792,2.15517 2.0365,3.83645 1.76771,3.9702 3.51671,6.84839 5.83571,9.60334 1.03007,1.22372 1.87286,2.5088 1.87286,2.85574 0,1.37672 -2.15035,2.32925 -3.10445,1.37516 z m -5.36222,-14.04055 c 0,-0.19403 -0.16812,-0.35278 -0.3736,-0.35278 -0.20548,0 -0.27548,0.15875 -0.15556,0.35278 0.11991,0.19402 0.28803,0.35277 0.37359,0.35277 0.0856,0 0.15557,-0.15875 0.15557,-0.35277 z m 223.992458,-3.72996 c -0.253295,-0.30522 -1.026796,-0.85009 -1.718875,-1.21082 -0.69208,-0.36073 -1.687971,-1.06351 -2.213081,-1.56172 -1.131111,-1.07318 -3.658482,-1.25105 -5.027789,-0.35385 -0.964989,0.63229 -2.878985,0.78176 -3.395592,0.26517 -0.230646,-0.23065 -0.230752,-0.6617 0,-1.26766 0.394229,-1.03689 1.429102,-1.41189 5.700995,-2.06584 3.278258,-0.50184 3.953228,-0.33655 5.958099,1.45904 0.866246,0.77582 1.858081,1.50043 2.20405,1.61024 1.393578,0.4423 1.061967,3.6804 -0.376908,3.6804 -0.368476,0 -0.877182,-0.24973 -1.130511,-0.55496 z M -298.86179,11.375756 c -1.04881,-1.048808 -2.27598,-5.8776357 -2.89445,-11.38944264 -0.38738,-3.45232496 -0.21405,-16.83806536 0.24667,-19.04999936 0.22227,-1.067153 0.42331,-4.971884 0.44674,-8.677179 0.0325,-5.141623 0.15726,-6.875007 0.52678,-7.320139 0.76037,-0.915955 1.40158,-0.691084 1.98054,0.694567 0.63048,1.508961 0.75487,12.248429 0.19574,16.899504 -0.70058,5.827649 -0.554,20.5284423 0.21713,21.7761573 0.10074,0.162987 0.39322,1.598573 0.64997,3.1901862 0.41318,2.5612885 0.40333,2.9647925 -0.0857,3.5112065 -0.60047,0.670892 -0.8941,0.754433 -1.28339,0.365139 z m 7.01379,-47.38298 c -4.92787,-0.398378 -8.55377,-1.5194 -9.25423,-2.86113 -0.85147,-1.630994 0.88878,-2.056243 5.55007,-1.356223 1.26118,0.1894 4.6033,0.44577 7.42695,0.569708 5.07423,0.222726 5.14406,0.215568 6.00881,-0.616042 0.48121,-0.462763 1.13372,-1.251302 1.45003,-1.752314 0.31631,-0.501011 1.59492,-1.398069 2.84136,-1.993459 4.00475,-1.912958 6.25461,-5.386196 6.5167,-10.060194 0.10678,-1.9042 0.031,-2.734028 -0.24971,-2.734028 -0.56636,0 -2.0266,1.627335 -3.32261,3.702794 -1.28444,2.056948 -2.65433,2.823845 -5.65246,3.164395 -1.14987,0.130609 -2.70671,0.551755 -3.45965,0.935881 -1.89819,0.968382 -2.73998,0.637445 -2.73998,-1.077186 0,-1.161496 0.17914,-1.459004 1.34174,-2.22838 0.73795,-0.488354 1.96827,-0.963733 2.73403,-1.056397 2.70659,-0.327519 4.41161,-1.046744 4.95011,-2.088102 0.84888,-1.641546 2.64375,-3.471883 3.93274,-4.010462 1.03961,-0.434375 1.34907,-0.437077 2.14746,-0.01877 0.86476,0.453094 1.0178,0.414126 2.09786,-0.534183 1.31384,-1.153562 1.91069,-1.266034 2.56089,-0.482589 0.36482,0.439582 0.34309,0.916509 -0.11656,2.557639 -0.31075,1.109513 -0.65511,3.436605 -0.76525,5.171315 -0.24479,3.855692 -1.19411,5.960897 -4.14213,9.185645 -1.59147,1.740852 -2.46446,2.372991 -4.14514,3.001525 -1.97741,0.739503 -2.12947,0.874836 -2.13448,1.89974 -0.007,1.487068 -0.42239,2.045085 -1.62851,2.189141 -0.55656,0.06647 -2.12318,0.282819 -3.48137,0.480769 -2.69958,0.393446 -3.71844,0.394759 -8.46667,0.0109 z m -4.18628,-7.791556 c -0.36012,-0.420581 -0.72907,-1.416928 -0.8199,-2.214107 -0.29951,-2.628572 -0.0568,-7.399577 0.45275,-8.900477 0.27552,-0.811505 0.40609,-1.722635 0.29016,-2.024733 -0.23877,-0.622243 0.27506,-2.39978 1.44191,-4.988086 0.83974,-1.862723 3.83249,-4.969453 5.73473,-5.953139 1.91039,-0.987904 3.61302,-0.584757 3.61302,0.855486 0,1.119579 -2.08184,3.480001 -3.78826,4.295186 -2.04972,0.979187 -2.41805,1.691933 -3.29951,6.384772 -0.37087,1.974455 -0.88766,4.670806 -1.14844,5.991895 -0.34079,1.72641 -0.37516,2.772812 -0.12221,3.720486 0.26643,0.998202 0.2311,1.570602 -0.14543,2.35621 -0.62375,1.301421 -1.3655,1.461438 -2.20882,0.476507 z m 12.58568,-13.882051 c -1.33837,-0.582062 -3.28412,-3.128676 -3.28412,-4.298283 0,-1.050914 0.95355,-1.09759 2.54911,-0.124777 1.35618,0.826858 2.8372,0.913818 3.42853,0.201309 0.45146,-0.54398 -0.0651,-1.001702 -2.27347,-2.014347 -1.39903,-0.641533 -1.57054,-1.829901 -0.37696,-2.611959 1.23149,-0.806905 2.24106,-0.476857 4.35498,1.423744 0.97355,0.875305 1.92502,1.591461 2.11438,1.591461 0.18937,0 1.08837,-0.329138 1.99779,-0.731418 1.32073,-0.584224 1.63149,-0.884173 1.54415,-1.490475 -0.15001,-1.041403 -1.51782,-1.647267 -3.73288,-1.653462 -1.66116,-0.0047 -1.90455,-0.103752 -2.28037,-0.928585 -0.65403,-1.435459 0.58275,-2.251615 3.41205,-2.251615 1.89208,0 2.30789,0.122848 3.03481,0.896616 1.13965,1.213108 2.06601,0.992505 2.71725,-0.647092 0.29229,-0.735886 0.44427,-1.425147 0.33773,-1.53169 -0.10655,-0.106543 -0.75078,0.0077 -1.43163,0.253918 -1.4554,0.52628 -2.34269,0.05158 -2.34269,-1.253327 0,-0.712766 0.96286,-1.951758 1.51677,-1.951758 0.12457,0 0.93094,-0.496538 1.79192,-1.103417 1.03361,-0.728558 2.02282,-1.118063 2.91176,-1.146528 1.25247,-0.04011 1.37665,0.04787 1.78132,1.26197 0.38296,1.148971 0.33547,1.592049 -0.39705,3.704166 -1.11678,3.220064 -1.84988,4.615988 -3.25212,6.192463 -0.64768,0.728165 -1.1776,1.613302 -1.1776,1.96698 0,1.475119 -2.77727,2.940374 -5.2078,2.747574 -1.32873,-0.105399 -1.5552,-0.01214 -1.947,0.801673 -0.34011,0.706473 -0.71241,0.925675 -1.59863,0.941229 -0.90993,0.01598 -1.30071,0.259447 -1.84018,1.146528 -0.77387,1.272536 -0.80564,1.280773 -2.35005,0.609102 z"
       id="path5626" />
  </g>
</svg>
